ISO-10303-21;
HEADER;
/* Generated by software containing ST-Developer
 * from STEP Tools, Inc. (www.steptools.com) 
 */

FILE_DESCRIPTION(
/* description */ (''),
/* implementation_level */ '2;1');

FILE_NAME(
/* name */ 'CSRF1206.stp',
/* time_stamp */ '2025-08-04T15:34:43-04:00',
/* author */ ('kkuhl'),
/* organization */ (''),
/* preprocessor_version */ 'ST-DEVELOPER v20',
/* originating_system */ 'Autodesk Inventor 2025',
/* authorisation */ '');

FILE_SCHEMA (('AUTOMOTIVE_DESIGN { 1 0 10303 214 3 1 1 }'));
ENDSEC;

DATA;
#10=MECHANICAL_DESIGN_GEOMETRIC_PRESENTATION_REPRESENTATION('',(#441,#442,
#443,#444,#445,#446,#447,#448,#449,#450,#451,#452,#453,#454,#455,#456,#457,
#458,#459,#460,#461,#462,#463,#464,#465,#466,#467,#468,#469,#470,#471,#472),
#805);
#11=SHAPE_REPRESENTATION_RELATIONSHIP('SRR','None',#812,#12);
#12=ADVANCED_BREP_SHAPE_REPRESENTATION('',(#13,#14,#15,#16),#804);
#13=MANIFOLD_SOLID_BREP('Solid1',#501);
#14=MANIFOLD_SOLID_BREP('Solid2',#502);
#15=MANIFOLD_SOLID_BREP('Solid2',#503);
#16=MANIFOLD_SOLID_BREP('Solid3',#504);
#17=FACE_OUTER_BOUND('',#45,.T.);
#18=FACE_OUTER_BOUND('',#46,.T.);
#19=FACE_OUTER_BOUND('',#47,.T.);
#20=FACE_OUTER_BOUND('',#48,.T.);
#21=FACE_OUTER_BOUND('',#49,.T.);
#22=FACE_OUTER_BOUND('',#50,.T.);
#23=FACE_OUTER_BOUND('',#51,.T.);
#24=FACE_OUTER_BOUND('',#52,.T.);
#25=FACE_OUTER_BOUND('',#53,.T.);
#26=FACE_OUTER_BOUND('',#54,.T.);
#27=FACE_OUTER_BOUND('',#55,.T.);
#28=FACE_OUTER_BOUND('',#56,.T.);
#29=FACE_OUTER_BOUND('',#57,.T.);
#30=FACE_OUTER_BOUND('',#58,.T.);
#31=FACE_OUTER_BOUND('',#59,.T.);
#32=FACE_OUTER_BOUND('',#60,.T.);
#33=FACE_OUTER_BOUND('',#61,.T.);
#34=FACE_OUTER_BOUND('',#62,.T.);
#35=FACE_OUTER_BOUND('',#63,.T.);
#36=FACE_OUTER_BOUND('',#64,.T.);
#37=FACE_OUTER_BOUND('',#65,.T.);
#38=FACE_OUTER_BOUND('',#66,.T.);
#39=FACE_OUTER_BOUND('',#67,.T.);
#40=FACE_OUTER_BOUND('',#68,.T.);
#41=FACE_OUTER_BOUND('',#69,.T.);
#42=FACE_OUTER_BOUND('',#70,.T.);
#43=FACE_OUTER_BOUND('',#71,.T.);
#44=FACE_OUTER_BOUND('',#72,.T.);
#45=EDGE_LOOP('',(#293,#294,#295,#296));
#46=EDGE_LOOP('',(#297,#298,#299,#300));
#47=EDGE_LOOP('',(#301,#302,#303,#304));
#48=EDGE_LOOP('',(#305,#306,#307,#308));
#49=EDGE_LOOP('',(#309,#310,#311,#312));
#50=EDGE_LOOP('',(#313,#314,#315,#316));
#51=EDGE_LOOP('',(#317,#318,#319,#320,#321,#322));
#52=EDGE_LOOP('',(#323,#324,#325,#326));
#53=EDGE_LOOP('',(#327,#328,#329,#330));
#54=EDGE_LOOP('',(#331,#332,#333,#334));
#55=EDGE_LOOP('',(#335,#336,#337,#338));
#56=EDGE_LOOP('',(#339,#340,#341,#342));
#57=EDGE_LOOP('',(#343,#344,#345,#346));
#58=EDGE_LOOP('',(#347,#348,#349,#350,#351,#352));
#59=EDGE_LOOP('',(#353,#354,#355,#356,#357,#358));
#60=EDGE_LOOP('',(#359,#360,#361,#362));
#61=EDGE_LOOP('',(#363,#364,#365,#366));
#62=EDGE_LOOP('',(#367,#368,#369,#370));
#63=EDGE_LOOP('',(#371,#372,#373,#374));
#64=EDGE_LOOP('',(#375,#376,#377,#378));
#65=EDGE_LOOP('',(#379,#380,#381,#382));
#66=EDGE_LOOP('',(#383,#384,#385,#386,#387,#388));
#67=EDGE_LOOP('',(#389,#390,#391,#392));
#68=EDGE_LOOP('',(#393,#394,#395,#396));
#69=EDGE_LOOP('',(#397,#398,#399,#400));
#70=EDGE_LOOP('',(#401,#402,#403,#404));
#71=EDGE_LOOP('',(#405,#406,#407,#408));
#72=EDGE_LOOP('',(#409,#410,#411,#412));
#73=LINE('',#677,#133);
#74=LINE('',#679,#134);
#75=LINE('',#681,#135);
#76=LINE('',#682,#136);
#77=LINE('',#685,#137);
#78=LINE('',#687,#138);
#79=LINE('',#688,#139);
#80=LINE('',#691,#140);
#81=LINE('',#693,#141);
#82=LINE('',#694,#142);
#83=LINE('',#696,#143);
#84=LINE('',#697,#144);
#85=LINE('',#703,#145);
#86=LINE('',#705,#146);
#87=LINE('',#707,#147);
#88=LINE('',#709,#148);
#89=LINE('',#711,#149);
#90=LINE('',#712,#150);
#91=LINE('',#715,#151);
#92=LINE('',#717,#152);
#93=LINE('',#718,#153);
#94=LINE('',#721,#154);
#95=LINE('',#722,#155);
#96=LINE('',#725,#156);
#97=LINE('',#726,#157);
#98=LINE('',#729,#158);
#99=LINE('',#730,#159);
#100=LINE('',#733,#160);
#101=LINE('',#734,#161);
#102=LINE('',#736,#162);
#103=LINE('',#741,#163);
#104=LINE('',#743,#164);
#105=LINE('',#745,#165);
#106=LINE('',#747,#166);
#107=LINE('',#749,#167);
#108=LINE('',#750,#168);
#109=LINE('',#753,#169);
#110=LINE('',#755,#170);
#111=LINE('',#756,#171);
#112=LINE('',#759,#172);
#113=LINE('',#760,#173);
#114=LINE('',#763,#174);
#115=LINE('',#764,#175);
#116=LINE('',#767,#176);
#117=LINE('',#768,#177);
#118=LINE('',#771,#178);
#119=LINE('',#772,#179);
#120=LINE('',#774,#180);
#121=LINE('',#779,#181);
#122=LINE('',#781,#182);
#123=LINE('',#783,#183);
#124=LINE('',#784,#184);
#125=LINE('',#787,#185);
#126=LINE('',#789,#186);
#127=LINE('',#790,#187);
#128=LINE('',#793,#188);
#129=LINE('',#795,#189);
#130=LINE('',#796,#190);
#131=LINE('',#798,#191);
#132=LINE('',#799,#192);
#133=VECTOR('',#559,10.);
#134=VECTOR('',#560,10.);
#135=VECTOR('',#561,10.);
#136=VECTOR('',#562,10.);
#137=VECTOR('',#565,10.);
#138=VECTOR('',#566,10.);
#139=VECTOR('',#567,10.);
#140=VECTOR('',#570,10.);
#141=VECTOR('',#571,10.);
#142=VECTOR('',#572,10.);
#143=VECTOR('',#575,10.);
#144=VECTOR('',#576,10.);
#145=VECTOR('',#583,10.);
#146=VECTOR('',#584,10.);
#147=VECTOR('',#585,10.);
#148=VECTOR('',#586,10.);
#149=VECTOR('',#587,10.);
#150=VECTOR('',#588,10.);
#151=VECTOR('',#591,10.);
#152=VECTOR('',#592,10.);
#153=VECTOR('',#593,10.);
#154=VECTOR('',#596,10.);
#155=VECTOR('',#597,10.);
#156=VECTOR('',#600,10.);
#157=VECTOR('',#601,10.);
#158=VECTOR('',#604,10.);
#159=VECTOR('',#605,10.);
#160=VECTOR('',#608,10.);
#161=VECTOR('',#609,10.);
#162=VECTOR('',#612,10.);
#163=VECTOR('',#617,10.);
#164=VECTOR('',#618,10.);
#165=VECTOR('',#619,10.);
#166=VECTOR('',#620,10.);
#167=VECTOR('',#621,10.);
#168=VECTOR('',#622,10.);
#169=VECTOR('',#625,10.);
#170=VECTOR('',#626,10.);
#171=VECTOR('',#627,10.);
#172=VECTOR('',#630,10.);
#173=VECTOR('',#631,10.);
#174=VECTOR('',#634,10.);
#175=VECTOR('',#635,10.);
#176=VECTOR('',#638,10.);
#177=VECTOR('',#639,10.);
#178=VECTOR('',#642,10.);
#179=VECTOR('',#643,10.);
#180=VECTOR('',#646,10.);
#181=VECTOR('',#651,10.);
#182=VECTOR('',#652,10.);
#183=VECTOR('',#653,10.);
#184=VECTOR('',#654,10.);
#185=VECTOR('',#657,10.);
#186=VECTOR('',#658,10.);
#187=VECTOR('',#659,10.);
#188=VECTOR('',#662,10.);
#189=VECTOR('',#663,10.);
#190=VECTOR('',#664,10.);
#191=VECTOR('',#667,10.);
#192=VECTOR('',#668,10.);
#193=VERTEX_POINT('',#675);
#194=VERTEX_POINT('',#676);
#195=VERTEX_POINT('',#678);
#196=VERTEX_POINT('',#680);
#197=VERTEX_POINT('',#684);
#198=VERTEX_POINT('',#686);
#199=VERTEX_POINT('',#690);
#200=VERTEX_POINT('',#692);
#201=VERTEX_POINT('',#701);
#202=VERTEX_POINT('',#702);
#203=VERTEX_POINT('',#704);
#204=VERTEX_POINT('',#706);
#205=VERTEX_POINT('',#708);
#206=VERTEX_POINT('',#710);
#207=VERTEX_POINT('',#714);
#208=VERTEX_POINT('',#716);
#209=VERTEX_POINT('',#720);
#210=VERTEX_POINT('',#724);
#211=VERTEX_POINT('',#728);
#212=VERTEX_POINT('',#732);
#213=VERTEX_POINT('',#739);
#214=VERTEX_POINT('',#740);
#215=VERTEX_POINT('',#742);
#216=VERTEX_POINT('',#744);
#217=VERTEX_POINT('',#746);
#218=VERTEX_POINT('',#748);
#219=VERTEX_POINT('',#752);
#220=VERTEX_POINT('',#754);
#221=VERTEX_POINT('',#758);
#222=VERTEX_POINT('',#762);
#223=VERTEX_POINT('',#766);
#224=VERTEX_POINT('',#770);
#225=VERTEX_POINT('',#777);
#226=VERTEX_POINT('',#778);
#227=VERTEX_POINT('',#780);
#228=VERTEX_POINT('',#782);
#229=VERTEX_POINT('',#786);
#230=VERTEX_POINT('',#788);
#231=VERTEX_POINT('',#792);
#232=VERTEX_POINT('',#794);
#233=EDGE_CURVE('',#193,#194,#73,.T.);
#234=EDGE_CURVE('',#194,#195,#74,.T.);
#235=EDGE_CURVE('',#196,#195,#75,.T.);
#236=EDGE_CURVE('',#193,#196,#76,.T.);
#237=EDGE_CURVE('',#197,#193,#77,.T.);
#238=EDGE_CURVE('',#198,#196,#78,.T.);
#239=EDGE_CURVE('',#197,#198,#79,.T.);
#240=EDGE_CURVE('',#199,#197,#80,.T.);
#241=EDGE_CURVE('',#200,#198,#81,.T.);
#242=EDGE_CURVE('',#199,#200,#82,.T.);
#243=EDGE_CURVE('',#194,#199,#83,.T.);
#244=EDGE_CURVE('',#195,#200,#84,.T.);
#245=EDGE_CURVE('',#201,#202,#85,.T.);
#246=EDGE_CURVE('',#202,#203,#86,.T.);
#247=EDGE_CURVE('',#203,#204,#87,.T.);
#248=EDGE_CURVE('',#204,#205,#88,.T.);
#249=EDGE_CURVE('',#205,#206,#89,.T.);
#250=EDGE_CURVE('',#206,#201,#90,.T.);
#251=EDGE_CURVE('',#207,#202,#91,.T.);
#252=EDGE_CURVE('',#208,#207,#92,.T.);
#253=EDGE_CURVE('',#203,#208,#93,.T.);
#254=EDGE_CURVE('',#209,#208,#94,.T.);
#255=EDGE_CURVE('',#204,#209,#95,.T.);
#256=EDGE_CURVE('',#210,#209,#96,.T.);
#257=EDGE_CURVE('',#205,#210,#97,.T.);
#258=EDGE_CURVE('',#211,#210,#98,.T.);
#259=EDGE_CURVE('',#206,#211,#99,.T.);
#260=EDGE_CURVE('',#212,#211,#100,.T.);
#261=EDGE_CURVE('',#201,#212,#101,.T.);
#262=EDGE_CURVE('',#207,#212,#102,.T.);
#263=EDGE_CURVE('',#213,#214,#103,.T.);
#264=EDGE_CURVE('',#214,#215,#104,.T.);
#265=EDGE_CURVE('',#215,#216,#105,.T.);
#266=EDGE_CURVE('',#216,#217,#106,.T.);
#267=EDGE_CURVE('',#217,#218,#107,.T.);
#268=EDGE_CURVE('',#218,#213,#108,.T.);
#269=EDGE_CURVE('',#219,#214,#109,.T.);
#270=EDGE_CURVE('',#220,#219,#110,.T.);
#271=EDGE_CURVE('',#215,#220,#111,.T.);
#272=EDGE_CURVE('',#221,#220,#112,.T.);
#273=EDGE_CURVE('',#216,#221,#113,.T.);
#274=EDGE_CURVE('',#222,#221,#114,.T.);
#275=EDGE_CURVE('',#217,#222,#115,.T.);
#276=EDGE_CURVE('',#223,#222,#116,.T.);
#277=EDGE_CURVE('',#218,#223,#117,.T.);
#278=EDGE_CURVE('',#224,#223,#118,.T.);
#279=EDGE_CURVE('',#213,#224,#119,.T.);
#280=EDGE_CURVE('',#219,#224,#120,.T.);
#281=EDGE_CURVE('',#225,#226,#121,.T.);
#282=EDGE_CURVE('',#225,#227,#122,.T.);
#283=EDGE_CURVE('',#228,#227,#123,.T.);
#284=EDGE_CURVE('',#226,#228,#124,.T.);
#285=EDGE_CURVE('',#226,#229,#125,.T.);
#286=EDGE_CURVE('',#230,#228,#126,.T.);
#287=EDGE_CURVE('',#229,#230,#127,.T.);
#288=EDGE_CURVE('',#229,#231,#128,.T.);
#289=EDGE_CURVE('',#232,#230,#129,.T.);
#290=EDGE_CURVE('',#231,#232,#130,.T.);
#291=EDGE_CURVE('',#231,#225,#131,.T.);
#292=EDGE_CURVE('',#227,#232,#132,.T.);
#293=ORIENTED_EDGE('',*,*,#233,.T.);
#294=ORIENTED_EDGE('',*,*,#234,.T.);
#295=ORIENTED_EDGE('',*,*,#235,.F.);
#296=ORIENTED_EDGE('',*,*,#236,.F.);
#297=ORIENTED_EDGE('',*,*,#237,.T.);
#298=ORIENTED_EDGE('',*,*,#236,.T.);
#299=ORIENTED_EDGE('',*,*,#238,.F.);
#300=ORIENTED_EDGE('',*,*,#239,.F.);
#301=ORIENTED_EDGE('',*,*,#240,.T.);
#302=ORIENTED_EDGE('',*,*,#239,.T.);
#303=ORIENTED_EDGE('',*,*,#241,.F.);
#304=ORIENTED_EDGE('',*,*,#242,.F.);
#305=ORIENTED_EDGE('',*,*,#243,.T.);
#306=ORIENTED_EDGE('',*,*,#242,.T.);
#307=ORIENTED_EDGE('',*,*,#244,.F.);
#308=ORIENTED_EDGE('',*,*,#234,.F.);
#309=ORIENTED_EDGE('',*,*,#244,.T.);
#310=ORIENTED_EDGE('',*,*,#241,.T.);
#311=ORIENTED_EDGE('',*,*,#238,.T.);
#312=ORIENTED_EDGE('',*,*,#235,.T.);
#313=ORIENTED_EDGE('',*,*,#243,.F.);
#314=ORIENTED_EDGE('',*,*,#233,.F.);
#315=ORIENTED_EDGE('',*,*,#237,.F.);
#316=ORIENTED_EDGE('',*,*,#240,.F.);
#317=ORIENTED_EDGE('',*,*,#245,.T.);
#318=ORIENTED_EDGE('',*,*,#246,.T.);
#319=ORIENTED_EDGE('',*,*,#247,.T.);
#320=ORIENTED_EDGE('',*,*,#248,.T.);
#321=ORIENTED_EDGE('',*,*,#249,.T.);
#322=ORIENTED_EDGE('',*,*,#250,.T.);
#323=ORIENTED_EDGE('',*,*,#251,.F.);
#324=ORIENTED_EDGE('',*,*,#252,.F.);
#325=ORIENTED_EDGE('',*,*,#253,.F.);
#326=ORIENTED_EDGE('',*,*,#246,.F.);
#327=ORIENTED_EDGE('',*,*,#253,.T.);
#328=ORIENTED_EDGE('',*,*,#254,.F.);
#329=ORIENTED_EDGE('',*,*,#255,.F.);
#330=ORIENTED_EDGE('',*,*,#247,.F.);
#331=ORIENTED_EDGE('',*,*,#255,.T.);
#332=ORIENTED_EDGE('',*,*,#256,.F.);
#333=ORIENTED_EDGE('',*,*,#257,.F.);
#334=ORIENTED_EDGE('',*,*,#248,.F.);
#335=ORIENTED_EDGE('',*,*,#257,.T.);
#336=ORIENTED_EDGE('',*,*,#258,.F.);
#337=ORIENTED_EDGE('',*,*,#259,.F.);
#338=ORIENTED_EDGE('',*,*,#249,.F.);
#339=ORIENTED_EDGE('',*,*,#259,.T.);
#340=ORIENTED_EDGE('',*,*,#260,.F.);
#341=ORIENTED_EDGE('',*,*,#261,.F.);
#342=ORIENTED_EDGE('',*,*,#250,.F.);
#343=ORIENTED_EDGE('',*,*,#261,.T.);
#344=ORIENTED_EDGE('',*,*,#262,.F.);
#345=ORIENTED_EDGE('',*,*,#251,.T.);
#346=ORIENTED_EDGE('',*,*,#245,.F.);
#347=ORIENTED_EDGE('',*,*,#262,.T.);
#348=ORIENTED_EDGE('',*,*,#260,.T.);
#349=ORIENTED_EDGE('',*,*,#258,.T.);
#350=ORIENTED_EDGE('',*,*,#256,.T.);
#351=ORIENTED_EDGE('',*,*,#254,.T.);
#352=ORIENTED_EDGE('',*,*,#252,.T.);
#353=ORIENTED_EDGE('',*,*,#263,.T.);
#354=ORIENTED_EDGE('',*,*,#264,.T.);
#355=ORIENTED_EDGE('',*,*,#265,.T.);
#356=ORIENTED_EDGE('',*,*,#266,.T.);
#357=ORIENTED_EDGE('',*,*,#267,.T.);
#358=ORIENTED_EDGE('',*,*,#268,.T.);
#359=ORIENTED_EDGE('',*,*,#269,.F.);
#360=ORIENTED_EDGE('',*,*,#270,.F.);
#361=ORIENTED_EDGE('',*,*,#271,.F.);
#362=ORIENTED_EDGE('',*,*,#264,.F.);
#363=ORIENTED_EDGE('',*,*,#271,.T.);
#364=ORIENTED_EDGE('',*,*,#272,.F.);
#365=ORIENTED_EDGE('',*,*,#273,.F.);
#366=ORIENTED_EDGE('',*,*,#265,.F.);
#367=ORIENTED_EDGE('',*,*,#273,.T.);
#368=ORIENTED_EDGE('',*,*,#274,.F.);
#369=ORIENTED_EDGE('',*,*,#275,.F.);
#370=ORIENTED_EDGE('',*,*,#266,.F.);
#371=ORIENTED_EDGE('',*,*,#275,.T.);
#372=ORIENTED_EDGE('',*,*,#276,.F.);
#373=ORIENTED_EDGE('',*,*,#277,.F.);
#374=ORIENTED_EDGE('',*,*,#267,.F.);
#375=ORIENTED_EDGE('',*,*,#277,.T.);
#376=ORIENTED_EDGE('',*,*,#278,.F.);
#377=ORIENTED_EDGE('',*,*,#279,.F.);
#378=ORIENTED_EDGE('',*,*,#268,.F.);
#379=ORIENTED_EDGE('',*,*,#279,.T.);
#380=ORIENTED_EDGE('',*,*,#280,.F.);
#381=ORIENTED_EDGE('',*,*,#269,.T.);
#382=ORIENTED_EDGE('',*,*,#263,.F.);
#383=ORIENTED_EDGE('',*,*,#280,.T.);
#384=ORIENTED_EDGE('',*,*,#278,.T.);
#385=ORIENTED_EDGE('',*,*,#276,.T.);
#386=ORIENTED_EDGE('',*,*,#274,.T.);
#387=ORIENTED_EDGE('',*,*,#272,.T.);
#388=ORIENTED_EDGE('',*,*,#270,.T.);
#389=ORIENTED_EDGE('',*,*,#281,.F.);
#390=ORIENTED_EDGE('',*,*,#282,.T.);
#391=ORIENTED_EDGE('',*,*,#283,.F.);
#392=ORIENTED_EDGE('',*,*,#284,.F.);
#393=ORIENTED_EDGE('',*,*,#285,.F.);
#394=ORIENTED_EDGE('',*,*,#284,.T.);
#395=ORIENTED_EDGE('',*,*,#286,.F.);
#396=ORIENTED_EDGE('',*,*,#287,.F.);
#397=ORIENTED_EDGE('',*,*,#288,.F.);
#398=ORIENTED_EDGE('',*,*,#287,.T.);
#399=ORIENTED_EDGE('',*,*,#289,.F.);
#400=ORIENTED_EDGE('',*,*,#290,.F.);
#401=ORIENTED_EDGE('',*,*,#291,.F.);
#402=ORIENTED_EDGE('',*,*,#290,.T.);
#403=ORIENTED_EDGE('',*,*,#292,.F.);
#404=ORIENTED_EDGE('',*,*,#282,.F.);
#405=ORIENTED_EDGE('',*,*,#291,.T.);
#406=ORIENTED_EDGE('',*,*,#281,.T.);
#407=ORIENTED_EDGE('',*,*,#285,.T.);
#408=ORIENTED_EDGE('',*,*,#288,.T.);
#409=ORIENTED_EDGE('',*,*,#292,.T.);
#410=ORIENTED_EDGE('',*,*,#289,.T.);
#411=ORIENTED_EDGE('',*,*,#286,.T.);
#412=ORIENTED_EDGE('',*,*,#283,.T.);
#413=PLANE('',#527);
#414=PLANE('',#528);
#415=PLANE('',#529);
#416=PLANE('',#530);
#417=PLANE('',#531);
#418=PLANE('',#532);
#419=PLANE('',#533);
#420=PLANE('',#534);
#421=PLANE('',#535);
#422=PLANE('',#536);
#423=PLANE('',#537);
#424=PLANE('',#538);
#425=PLANE('',#539);
#426=PLANE('',#540);
#427=PLANE('',#541);
#428=PLANE('',#542);
#429=PLANE('',#543);
#430=PLANE('',#544);
#431=PLANE('',#545);
#432=PLANE('',#546);
#433=PLANE('',#547);
#434=PLANE('',#548);
#435=PLANE('',#549);
#436=PLANE('',#550);
#437=PLANE('',#551);
#438=PLANE('',#552);
#439=PLANE('',#553);
#440=PLANE('',#554);
#441=STYLED_ITEM('',(#822),#473);
#442=STYLED_ITEM('',(#822),#474);
#443=STYLED_ITEM('',(#822),#475);
#444=STYLED_ITEM('',(#822),#476);
#445=STYLED_ITEM('',(#822),#477);
#446=STYLED_ITEM('',(#822),#478);
#447=STYLED_ITEM('',(#821),#13);
#448=STYLED_ITEM('',(#823),#479);
#449=STYLED_ITEM('',(#823),#480);
#450=STYLED_ITEM('',(#823),#481);
#451=STYLED_ITEM('',(#823),#482);
#452=STYLED_ITEM('',(#823),#483);
#453=STYLED_ITEM('',(#823),#484);
#454=STYLED_ITEM('',(#823),#485);
#455=STYLED_ITEM('',(#823),#486);
#456=STYLED_ITEM('',(#821),#14);
#457=STYLED_ITEM('',(#823),#487);
#458=STYLED_ITEM('',(#823),#488);
#459=STYLED_ITEM('',(#823),#489);
#460=STYLED_ITEM('',(#823),#490);
#461=STYLED_ITEM('',(#823),#491);
#462=STYLED_ITEM('',(#823),#492);
#463=STYLED_ITEM('',(#823),#493);
#464=STYLED_ITEM('',(#823),#494);
#465=STYLED_ITEM('',(#821),#15);
#466=STYLED_ITEM('',(#824),#495);
#467=STYLED_ITEM('',(#824),#496);
#468=STYLED_ITEM('',(#824),#497);
#469=STYLED_ITEM('',(#824),#498);
#470=STYLED_ITEM('',(#824),#499);
#471=STYLED_ITEM('',(#824),#500);
#472=STYLED_ITEM('',(#821),#16);
#473=ADVANCED_FACE('',(#17),#413,.T.);
#474=ADVANCED_FACE('',(#18),#414,.T.);
#475=ADVANCED_FACE('',(#19),#415,.T.);
#476=ADVANCED_FACE('',(#20),#416,.T.);
#477=ADVANCED_FACE('',(#21),#417,.T.);
#478=ADVANCED_FACE('',(#22),#418,.F.);
#479=ADVANCED_FACE('',(#23),#419,.T.);
#480=ADVANCED_FACE('',(#24),#420,.T.);
#481=ADVANCED_FACE('',(#25),#421,.T.);
#482=ADVANCED_FACE('',(#26),#422,.T.);
#483=ADVANCED_FACE('',(#27),#423,.T.);
#484=ADVANCED_FACE('',(#28),#424,.T.);
#485=ADVANCED_FACE('',(#29),#425,.T.);
#486=ADVANCED_FACE('',(#30),#426,.T.);
#487=ADVANCED_FACE('',(#31),#427,.T.);
#488=ADVANCED_FACE('',(#32),#428,.T.);
#489=ADVANCED_FACE('',(#33),#429,.T.);
#490=ADVANCED_FACE('',(#34),#430,.T.);
#491=ADVANCED_FACE('',(#35),#431,.T.);
#492=ADVANCED_FACE('',(#36),#432,.T.);
#493=ADVANCED_FACE('',(#37),#433,.T.);
#494=ADVANCED_FACE('',(#38),#434,.T.);
#495=ADVANCED_FACE('',(#39),#435,.T.);
#496=ADVANCED_FACE('',(#40),#436,.T.);
#497=ADVANCED_FACE('',(#41),#437,.T.);
#498=ADVANCED_FACE('',(#42),#438,.T.);
#499=ADVANCED_FACE('',(#43),#439,.T.);
#500=ADVANCED_FACE('',(#44),#440,.T.);
#501=CLOSED_SHELL('',(#473,#474,#475,#476,#477,#478));
#502=CLOSED_SHELL('',(#479,#480,#481,#482,#483,#484,#485,#486));
#503=CLOSED_SHELL('',(#487,#488,#489,#490,#491,#492,#493,#494));
#504=CLOSED_SHELL('',(#495,#496,#497,#498,#499,#500));
#505=DERIVED_UNIT_ELEMENT(#508,1.);
#506=DERIVED_UNIT_ELEMENT(#807,-3.);
#507=DIMENSIONAL_EXPONENTS(0.,1.,0.,0.,0.,0.,0.);
#508=(
CONVERSION_BASED_UNIT('gram',#510)
MASS_UNIT()
NAMED_UNIT(#507)
);
#509=(
MASS_UNIT()
NAMED_UNIT(*)
SI_UNIT(.KILO.,.GRAM.)
);
#510=MASS_MEASURE_WITH_UNIT(MASS_MEASURE(0.001),#509);
#511=DERIVED_UNIT((#505,#506));
#512=MEASURE_REPRESENTATION_ITEM('density measure',
POSITIVE_RATIO_MEASURE(1.),#511);
#513=PROPERTY_DEFINITION_REPRESENTATION(#518,#515);
#514=PROPERTY_DEFINITION_REPRESENTATION(#519,#516);
#515=REPRESENTATION('material name',(#517),#804);
#516=REPRESENTATION('density',(#512),#804);
#517=DESCRIPTIVE_REPRESENTATION_ITEM('Generic','Generic');
#518=PROPERTY_DEFINITION('material property','material name',#814);
#519=PROPERTY_DEFINITION('material property','density of part',#814);
#520=DATE_TIME_ROLE('creation_date');
#521=APPLIED_DATE_AND_TIME_ASSIGNMENT(#522,#520,(#814));
#522=DATE_AND_TIME(#523,#524);
#523=CALENDAR_DATE(2025,4,8);
#524=LOCAL_TIME(0,0,0.,#525);
#525=COORDINATED_UNIVERSAL_TIME_OFFSET(0,0,.BEHIND.);
#526=AXIS2_PLACEMENT_3D('',#673,#555,#556);
#527=AXIS2_PLACEMENT_3D('',#674,#557,#558);
#528=AXIS2_PLACEMENT_3D('',#683,#563,#564);
#529=AXIS2_PLACEMENT_3D('',#689,#568,#569);
#530=AXIS2_PLACEMENT_3D('',#695,#573,#574);
#531=AXIS2_PLACEMENT_3D('',#698,#577,#578);
#532=AXIS2_PLACEMENT_3D('',#699,#579,#580);
#533=AXIS2_PLACEMENT_3D('',#700,#581,#582);
#534=AXIS2_PLACEMENT_3D('',#713,#589,#590);
#535=AXIS2_PLACEMENT_3D('',#719,#594,#595);
#536=AXIS2_PLACEMENT_3D('',#723,#598,#599);
#537=AXIS2_PLACEMENT_3D('',#727,#602,#603);
#538=AXIS2_PLACEMENT_3D('',#731,#606,#607);
#539=AXIS2_PLACEMENT_3D('',#735,#610,#611);
#540=AXIS2_PLACEMENT_3D('',#737,#613,#614);
#541=AXIS2_PLACEMENT_3D('',#738,#615,#616);
#542=AXIS2_PLACEMENT_3D('',#751,#623,#624);
#543=AXIS2_PLACEMENT_3D('',#757,#628,#629);
#544=AXIS2_PLACEMENT_3D('',#761,#632,#633);
#545=AXIS2_PLACEMENT_3D('',#765,#636,#637);
#546=AXIS2_PLACEMENT_3D('',#769,#640,#641);
#547=AXIS2_PLACEMENT_3D('',#773,#644,#645);
#548=AXIS2_PLACEMENT_3D('',#775,#647,#648);
#549=AXIS2_PLACEMENT_3D('',#776,#649,#650);
#550=AXIS2_PLACEMENT_3D('',#785,#655,#656);
#551=AXIS2_PLACEMENT_3D('',#791,#660,#661);
#552=AXIS2_PLACEMENT_3D('',#797,#665,#666);
#553=AXIS2_PLACEMENT_3D('',#800,#669,#670);
#554=AXIS2_PLACEMENT_3D('',#801,#671,#672);
#555=DIRECTION('axis',(0.,0.,1.));
#556=DIRECTION('refdir',(1.,0.,0.));
#557=DIRECTION('center_axis',(0.,0.,1.));
#558=DIRECTION('ref_axis',(1.,0.,0.));
#559=DIRECTION('',(1.,0.,0.));
#560=DIRECTION('',(0.,1.,0.));
#561=DIRECTION('',(1.,0.,0.));
#562=DIRECTION('',(0.,1.,0.));
#563=DIRECTION('center_axis',(-1.,0.,0.));
#564=DIRECTION('ref_axis',(0.,0.,1.));
#565=DIRECTION('',(0.,0.,1.));
#566=DIRECTION('',(0.,0.,1.));
#567=DIRECTION('',(0.,1.,0.));
#568=DIRECTION('center_axis',(0.,0.,-1.));
#569=DIRECTION('ref_axis',(-1.,0.,0.));
#570=DIRECTION('',(-1.,0.,0.));
#571=DIRECTION('',(-1.,0.,0.));
#572=DIRECTION('',(0.,1.,0.));
#573=DIRECTION('center_axis',(1.,0.,0.));
#574=DIRECTION('ref_axis',(0.,0.,-1.));
#575=DIRECTION('',(0.,0.,-1.));
#576=DIRECTION('',(0.,0.,-1.));
#577=DIRECTION('center_axis',(0.,1.,0.));
#578=DIRECTION('ref_axis',(0.,0.,1.));
#579=DIRECTION('center_axis',(0.,1.,0.));
#580=DIRECTION('ref_axis',(0.,0.,1.));
#581=DIRECTION('center_axis',(0.,0.,-1.));
#582=DIRECTION('ref_axis',(-1.,0.,0.));
#583=DIRECTION('',(0.,-1.,0.));
#584=DIRECTION('',(-1.,0.,0.));
#585=DIRECTION('',(0.,1.,0.));
#586=DIRECTION('',(1.,0.,0.));
#587=DIRECTION('',(0.,1.,0.));
#588=DIRECTION('',(1.,0.,0.));
#589=DIRECTION('center_axis',(0.,-1.,0.));
#590=DIRECTION('ref_axis',(1.,0.,0.));
#591=DIRECTION('',(0.,0.,-1.));
#592=DIRECTION('',(1.,0.,0.));
#593=DIRECTION('',(0.,0.,1.));
#594=DIRECTION('center_axis',(-1.,0.,0.));
#595=DIRECTION('ref_axis',(0.,-1.,0.));
#596=DIRECTION('',(0.,-1.,0.));
#597=DIRECTION('',(0.,0.,1.));
#598=DIRECTION('center_axis',(0.,1.,0.));
#599=DIRECTION('ref_axis',(-1.,0.,0.));
#600=DIRECTION('',(-1.,0.,0.));
#601=DIRECTION('',(0.,0.,1.));
#602=DIRECTION('center_axis',(-1.,0.,0.));
#603=DIRECTION('ref_axis',(0.,-1.,0.));
#604=DIRECTION('',(0.,-1.,0.));
#605=DIRECTION('',(0.,0.,1.));
#606=DIRECTION('center_axis',(0.,1.,0.));
#607=DIRECTION('ref_axis',(-1.,0.,0.));
#608=DIRECTION('',(-1.,0.,0.));
#609=DIRECTION('',(0.,0.,1.));
#610=DIRECTION('center_axis',(1.,0.,0.));
#611=DIRECTION('ref_axis',(0.,1.,0.));
#612=DIRECTION('',(0.,1.,0.));
#613=DIRECTION('center_axis',(0.,0.,1.));
#614=DIRECTION('ref_axis',(1.,0.,0.));
#615=DIRECTION('center_axis',(0.,0.,-1.));
#616=DIRECTION('ref_axis',(-1.,0.,0.));
#617=DIRECTION('',(0.,1.,0.));
#618=DIRECTION('',(1.,0.,0.));
#619=DIRECTION('',(0.,-1.,0.));
#620=DIRECTION('',(1.,0.,0.));
#621=DIRECTION('',(0.,-1.,0.));
#622=DIRECTION('',(-1.,0.,0.));
#623=DIRECTION('center_axis',(0.,1.,0.));
#624=DIRECTION('ref_axis',(-1.,0.,0.));
#625=DIRECTION('',(0.,0.,-1.));
#626=DIRECTION('',(-1.,0.,0.));
#627=DIRECTION('',(0.,0.,1.));
#628=DIRECTION('center_axis',(1.,0.,0.));
#629=DIRECTION('ref_axis',(0.,1.,0.));
#630=DIRECTION('',(0.,1.,0.));
#631=DIRECTION('',(0.,0.,1.));
#632=DIRECTION('center_axis',(0.,1.,0.));
#633=DIRECTION('ref_axis',(-1.,0.,0.));
#634=DIRECTION('',(-1.,0.,0.));
#635=DIRECTION('',(0.,0.,1.));
#636=DIRECTION('center_axis',(1.,0.,0.));
#637=DIRECTION('ref_axis',(0.,1.,0.));
#638=DIRECTION('',(0.,1.,0.));
#639=DIRECTION('',(0.,0.,1.));
#640=DIRECTION('center_axis',(0.,-1.,0.));
#641=DIRECTION('ref_axis',(1.,0.,0.));
#642=DIRECTION('',(1.,0.,0.));
#643=DIRECTION('',(0.,0.,1.));
#644=DIRECTION('center_axis',(-1.,0.,0.));
#645=DIRECTION('ref_axis',(0.,-1.,0.));
#646=DIRECTION('',(0.,-1.,0.));
#647=DIRECTION('center_axis',(0.,0.,1.));
#648=DIRECTION('ref_axis',(1.,0.,0.));
#649=DIRECTION('center_axis',(0.,1.,0.));
#650=DIRECTION('ref_axis',(1.,0.,0.));
#651=DIRECTION('',(-1.,0.,0.));
#652=DIRECTION('',(0.,0.,-1.));
#653=DIRECTION('',(1.,0.,0.));
#654=DIRECTION('',(0.,0.,-1.));
#655=DIRECTION('center_axis',(-1.,0.,0.));
#656=DIRECTION('ref_axis',(0.,1.,0.));
#657=DIRECTION('',(0.,-1.,0.));
#658=DIRECTION('',(0.,1.,0.));
#659=DIRECTION('',(0.,0.,-1.));
#660=DIRECTION('center_axis',(0.,-1.,0.));
#661=DIRECTION('ref_axis',(-1.,0.,0.));
#662=DIRECTION('',(1.,0.,0.));
#663=DIRECTION('',(-1.,0.,0.));
#664=DIRECTION('',(0.,0.,-1.));
#665=DIRECTION('center_axis',(1.,0.,0.));
#666=DIRECTION('ref_axis',(0.,-1.,0.));
#667=DIRECTION('',(0.,1.,0.));
#668=DIRECTION('',(0.,-1.,0.));
#669=DIRECTION('center_axis',(0.,0.,1.));
#670=DIRECTION('ref_axis',(1.,0.,0.));
#671=DIRECTION('center_axis',(0.,0.,-1.));
#672=DIRECTION('ref_axis',(-1.,0.,0.));
#673=CARTESIAN_POINT('',(0.,0.,0.));
#674=CARTESIAN_POINT('Origin',(0.,0.,0.));
#675=CARTESIAN_POINT('',(0.,0.,0.));
#676=CARTESIAN_POINT('',(3.072,0.,0.));
#677=CARTESIAN_POINT('',(0.,0.,0.));
#678=CARTESIAN_POINT('',(3.072,0.786,0.));
#679=CARTESIAN_POINT('',(3.072,0.,0.));
#680=CARTESIAN_POINT('',(0.,0.786,0.));
#681=CARTESIAN_POINT('',(0.,0.786,0.));
#682=CARTESIAN_POINT('',(0.,0.,0.));
#683=CARTESIAN_POINT('Origin',(0.,0.,-1.522));
#684=CARTESIAN_POINT('',(0.,0.,-1.522));
#685=CARTESIAN_POINT('',(0.,0.,-1.522));
#686=CARTESIAN_POINT('',(0.,0.786,-1.522));
#687=CARTESIAN_POINT('',(0.,0.786,-1.522));
#688=CARTESIAN_POINT('',(0.,0.,-1.522));
#689=CARTESIAN_POINT('Origin',(3.072,0.,-1.522));
#690=CARTESIAN_POINT('',(3.072,0.,-1.522));
#691=CARTESIAN_POINT('',(3.072,0.,-1.522));
#692=CARTESIAN_POINT('',(3.072,0.786,-1.522));
#693=CARTESIAN_POINT('',(3.072,0.786,-1.522));
#694=CARTESIAN_POINT('',(3.072,0.,-1.522));
#695=CARTESIAN_POINT('Origin',(3.072,0.,0.));
#696=CARTESIAN_POINT('',(3.072,0.,0.));
#697=CARTESIAN_POINT('',(3.072,0.786,0.));
#698=CARTESIAN_POINT('Origin',(1.536,0.786,-0.761));
#699=CARTESIAN_POINT('Origin',(1.536,0.,-0.761));
#700=CARTESIAN_POINT('Origin',(2.811,0.386,-1.536));
#701=CARTESIAN_POINT('',(3.086,0.786,-1.536));
#702=CARTESIAN_POINT('',(3.086,-0.014,-1.536));
#703=CARTESIAN_POINT('',(3.086,-0.014,-1.536));
#704=CARTESIAN_POINT('',(2.536,-0.014,-1.536));
#705=CARTESIAN_POINT('',(2.536,-0.014,-1.536));
#706=CARTESIAN_POINT('',(2.536,0.,-1.536));
#707=CARTESIAN_POINT('',(2.536,0.,-1.536));
#708=CARTESIAN_POINT('',(3.072,0.,-1.536));
#709=CARTESIAN_POINT('',(3.072,0.,-1.536));
#710=CARTESIAN_POINT('',(3.072,0.786,-1.536));
#711=CARTESIAN_POINT('',(3.072,0.786,-1.536));
#712=CARTESIAN_POINT('',(3.086,0.786,-1.536));
#713=CARTESIAN_POINT('Origin',(2.536,-0.014,0.));
#714=CARTESIAN_POINT('',(3.086,-0.014,0.014));
#715=CARTESIAN_POINT('',(3.086,-0.014,0.));
#716=CARTESIAN_POINT('',(2.536,-0.014,0.014));
#717=CARTESIAN_POINT('',(2.536,-0.014,0.014));
#718=CARTESIAN_POINT('',(2.536,-0.014,0.));
#719=CARTESIAN_POINT('Origin',(2.536,0.,0.));
#720=CARTESIAN_POINT('',(2.536,0.,0.014));
#721=CARTESIAN_POINT('',(2.536,0.,0.014));
#722=CARTESIAN_POINT('',(2.536,0.,0.));
#723=CARTESIAN_POINT('Origin',(3.072,0.,0.));
#724=CARTESIAN_POINT('',(3.072,0.,0.014));
#725=CARTESIAN_POINT('',(3.072,0.,0.014));
#726=CARTESIAN_POINT('',(3.072,0.,0.));
#727=CARTESIAN_POINT('Origin',(3.072,0.786,0.));
#728=CARTESIAN_POINT('',(3.072,0.786,0.014));
#729=CARTESIAN_POINT('',(3.072,0.786,0.014));
#730=CARTESIAN_POINT('',(3.072,0.786,0.));
#731=CARTESIAN_POINT('Origin',(3.086,0.786,0.));
#732=CARTESIAN_POINT('',(3.086,0.786,0.014));
#733=CARTESIAN_POINT('',(3.086,0.786,0.014));
#734=CARTESIAN_POINT('',(3.086,0.786,0.));
#735=CARTESIAN_POINT('Origin',(3.086,-0.014,0.));
#736=CARTESIAN_POINT('',(3.086,-0.014,0.014));
#737=CARTESIAN_POINT('Origin',(2.811,0.386,0.014));
#738=CARTESIAN_POINT('Origin',(0.261,0.386,-1.536));
#739=CARTESIAN_POINT('',(-0.014,-0.014,-1.536));
#740=CARTESIAN_POINT('',(-0.014,0.786,-1.536));
#741=CARTESIAN_POINT('',(-0.014,0.786,-1.536));
#742=CARTESIAN_POINT('',(0.,0.786,-1.536));
#743=CARTESIAN_POINT('',(0.,0.786,-1.536));
#744=CARTESIAN_POINT('',(0.,0.,-1.536));
#745=CARTESIAN_POINT('',(0.,0.,-1.536));
#746=CARTESIAN_POINT('',(0.536,0.,-1.536));
#747=CARTESIAN_POINT('',(3.072,0.,-1.536));
#748=CARTESIAN_POINT('',(0.536,-0.014,-1.536));
#749=CARTESIAN_POINT('',(0.536,-0.014,-1.536));
#750=CARTESIAN_POINT('',(-0.014,-0.014,-1.536));
#751=CARTESIAN_POINT('Origin',(0.,0.786,0.));
#752=CARTESIAN_POINT('',(-0.014,0.786,0.014));
#753=CARTESIAN_POINT('',(-0.014,0.786,0.));
#754=CARTESIAN_POINT('',(0.,0.786,0.014));
#755=CARTESIAN_POINT('',(0.,0.786,0.014));
#756=CARTESIAN_POINT('',(0.,0.786,0.));
#757=CARTESIAN_POINT('Origin',(0.,0.,0.));
#758=CARTESIAN_POINT('',(0.,0.,0.014));
#759=CARTESIAN_POINT('',(0.,0.,0.014));
#760=CARTESIAN_POINT('',(0.,0.,0.));
#761=CARTESIAN_POINT('Origin',(0.536,0.,0.));
#762=CARTESIAN_POINT('',(0.536,0.,0.014));
#763=CARTESIAN_POINT('',(3.072,0.,0.014));
#764=CARTESIAN_POINT('',(0.536,0.,0.));
#765=CARTESIAN_POINT('Origin',(0.536,-0.014,0.));
#766=CARTESIAN_POINT('',(0.536,-0.014,0.014));
#767=CARTESIAN_POINT('',(0.536,-0.014,0.014));
#768=CARTESIAN_POINT('',(0.536,-0.014,0.));
#769=CARTESIAN_POINT('Origin',(-0.014,-0.014,0.));
#770=CARTESIAN_POINT('',(-0.014,-0.014,0.014));
#771=CARTESIAN_POINT('',(-0.014,-0.014,0.014));
#772=CARTESIAN_POINT('',(-0.014,-0.014,0.));
#773=CARTESIAN_POINT('Origin',(-0.014,0.786,0.));
#774=CARTESIAN_POINT('',(-0.014,0.786,0.014));
#775=CARTESIAN_POINT('Origin',(0.261,0.386,0.014));
#776=CARTESIAN_POINT('Origin',(0.536,0.,0.));
#777=CARTESIAN_POINT('',(2.536,0.,0.));
#778=CARTESIAN_POINT('',(0.536,0.,0.));
#779=CARTESIAN_POINT('',(2.536,0.,0.));
#780=CARTESIAN_POINT('',(2.536,0.,-1.522));
#781=CARTESIAN_POINT('',(2.536,0.,0.));
#782=CARTESIAN_POINT('',(0.536,0.,-1.522));
#783=CARTESIAN_POINT('',(2.536,0.,-1.522));
#784=CARTESIAN_POINT('',(0.536,0.,0.));
#785=CARTESIAN_POINT('Origin',(0.536,-0.014,0.));
#786=CARTESIAN_POINT('',(0.536,-0.014,0.));
#787=CARTESIAN_POINT('',(0.536,0.,0.));
#788=CARTESIAN_POINT('',(0.536,-0.014,-1.522));
#789=CARTESIAN_POINT('',(0.536,0.,-1.522));
#790=CARTESIAN_POINT('',(0.536,-0.014,0.));
#791=CARTESIAN_POINT('Origin',(2.536,-0.014,0.));
#792=CARTESIAN_POINT('',(2.536,-0.014,0.));
#793=CARTESIAN_POINT('',(0.536,-0.014,0.));
#794=CARTESIAN_POINT('',(2.536,-0.014,-1.522));
#795=CARTESIAN_POINT('',(0.536,-0.014,-1.522));
#796=CARTESIAN_POINT('',(2.536,-0.014,0.));
#797=CARTESIAN_POINT('Origin',(2.536,0.,0.));
#798=CARTESIAN_POINT('',(2.536,-0.014,0.));
#799=CARTESIAN_POINT('',(2.536,-0.014,-1.522));
#800=CARTESIAN_POINT('Origin',(1.536,-0.007,0.));
#801=CARTESIAN_POINT('Origin',(1.536,-0.007,-1.522));
#802=UNCERTAINTY_MEASURE_WITH_UNIT(LENGTH_MEASURE(0.01),#806,
'DISTANCE_ACCURACY_VALUE',
'Maximum model space distance between geometric entities at asserted c
onnectivities');
#803=UNCERTAINTY_MEASURE_WITH_UNIT(LENGTH_MEASURE(0.01),#806,
'DISTANCE_ACCURACY_VALUE',
'Maximum model space distance between geometric entities at asserted c
onnectivities');
#804=(
GEOMETRIC_REPRESENTATION_CONTEXT(3)
GLOBAL_UNCERTAINTY_ASSIGNED_CONTEXT((#802))
GLOBAL_UNIT_ASSIGNED_CONTEXT((#806,#808,#809))
REPRESENTATION_CONTEXT('','3D')
);
#805=(
GEOMETRIC_REPRESENTATION_CONTEXT(3)
GLOBAL_UNCERTAINTY_ASSIGNED_CONTEXT((#803))
GLOBAL_UNIT_ASSIGNED_CONTEXT((#806,#808,#809))
REPRESENTATION_CONTEXT('','3D')
);
#806=(
LENGTH_UNIT()
NAMED_UNIT(*)
SI_UNIT(.MILLI.,.METRE.)
);
#807=(
LENGTH_UNIT()
NAMED_UNIT(*)
SI_UNIT(.CENTI.,.METRE.)
);
#808=(
NAMED_UNIT(*)
PLANE_ANGLE_UNIT()
SI_UNIT($,.RADIAN.)
);
#809=(
NAMED_UNIT(*)
SI_UNIT($,.STERADIAN.)
SOLID_ANGLE_UNIT()
);
#810=SHAPE_DEFINITION_REPRESENTATION(#811,#812);
#811=PRODUCT_DEFINITION_SHAPE('',$,#814);
#812=SHAPE_REPRESENTATION('',(#526),#804);
#813=PRODUCT_DEFINITION_CONTEXT('part definition',#818,'design');
#814=PRODUCT_DEFINITION('CSRF1206','CSRF1206',#815,#813);
#815=PRODUCT_DEFINITION_FORMATION('',$,#820);
#816=PRODUCT_RELATED_PRODUCT_CATEGORY('CSRF1206','CSRF1206',(#820));
#817=APPLICATION_PROTOCOL_DEFINITION('international standard',
'automotive_design',2009,#818);
#818=APPLICATION_CONTEXT(
'Core Data for Automotive Mechanical Design Process');
#819=PRODUCT_CONTEXT('part definition',#818,'mechanical');
#820=PRODUCT('CSRF1206','CSRF1206',$,(#819));
#821=PRESENTATION_STYLE_ASSIGNMENT((#825));
#822=PRESENTATION_STYLE_ASSIGNMENT((#826));
#823=PRESENTATION_STYLE_ASSIGNMENT((#827));
#824=PRESENTATION_STYLE_ASSIGNMENT((#828));
#825=SURFACE_STYLE_USAGE(.BOTH.,#837);
#826=SURFACE_STYLE_USAGE(.BOTH.,#838);
#827=SURFACE_STYLE_USAGE(.BOTH.,#839);
#828=SURFACE_STYLE_USAGE(.BOTH.,#840);
#829=SURFACE_STYLE_RENDERING_WITH_PROPERTIES($,#853,(#833));
#830=SURFACE_STYLE_RENDERING_WITH_PROPERTIES($,#854,(#834));
#831=SURFACE_STYLE_RENDERING_WITH_PROPERTIES($,#855,(#835));
#832=SURFACE_STYLE_RENDERING_WITH_PROPERTIES($,#856,(#836));
#833=SURFACE_STYLE_TRANSPARENT(0.);
#834=SURFACE_STYLE_TRANSPARENT(0.);
#835=SURFACE_STYLE_TRANSPARENT(0.);
#836=SURFACE_STYLE_TRANSPARENT(0.);
#837=SURFACE_SIDE_STYLE('',(#841,#829));
#838=SURFACE_SIDE_STYLE('',(#842,#830));
#839=SURFACE_SIDE_STYLE('',(#843,#831));
#840=SURFACE_SIDE_STYLE('',(#844,#832));
#841=SURFACE_STYLE_FILL_AREA(#845);
#842=SURFACE_STYLE_FILL_AREA(#846);
#843=SURFACE_STYLE_FILL_AREA(#847);
#844=SURFACE_STYLE_FILL_AREA(#848);
#845=FILL_AREA_STYLE('',(#849));
#846=FILL_AREA_STYLE('',(#850));
#847=FILL_AREA_STYLE('',(#851));
#848=FILL_AREA_STYLE('',(#852));
#849=FILL_AREA_STYLE_COLOUR('',#853);
#850=FILL_AREA_STYLE_COLOUR('',#854);
#851=FILL_AREA_STYLE_COLOUR('',#855);
#852=FILL_AREA_STYLE_COLOUR('',#856);
#853=COLOUR_RGB('',0.749019607843137,0.749019607843137,0.749019607843137);
#854=COLOUR_RGB('',0.96078431372549,0.96078431372549,0.96078431372549);
#855=COLOUR_RGB('',0.6,0.6,0.6);
#856=COLOUR_RGB('',0.270588235294118,0.270588235294118,0.270588235294118);
ENDSEC;
END-ISO-10303-21;
