ISO-10303-21;
HEADER;
/* Generated by software containing ST-Developer
 * from STEP Tools, Inc. (www.steptools.com) 
 */

FILE_DESCRIPTION(
/* description */ ('FreeCAD Model'),
/* implementation_level */ '2;1');

FILE_NAME(
/* name */ 'METUPowerLab_Switching_PWMControllers_SOIC-16.step',
/* time_stamp */ '2026-09-13T22:19:09+03:00',
/* author */ (''),
/* organization */ (''),
/* preprocessor_version */ 'ST-DEVELOPER v20.2',
/* originating_system */ 'Autodesk Translation Framework v15.15.0.0',
/* authorisation */ '');

FILE_SCHEMA (('AUTOMOTIVE_DESIGN { 1 0 10303 214 3 1 1 }'));
ENDSEC;

DATA;
#10=MECHANICAL_DESIGN_GEOMETRIC_PRESENTATION_REPRESENTATION('',(#148,#149,
#150,#151),#1528);
#11=FACE_BOUND('',#253,.T.);
#12=ITEM_DEFINED_TRANSFORMATION($,$,#909,#926);
#13=ITEM_DEFINED_TRANSFORMATION($,$,#909,#927);
#14=ITEM_DEFINED_TRANSFORMATION($,$,#909,#928);
#15=ITEM_DEFINED_TRANSFORMATION($,$,#909,#929);
#16=ITEM_DEFINED_TRANSFORMATION($,$,#909,#930);
#17=ITEM_DEFINED_TRANSFORMATION($,$,#909,#931);
#18=ITEM_DEFINED_TRANSFORMATION($,$,#909,#932);
#19=ITEM_DEFINED_TRANSFORMATION($,$,#909,#933);
#20=ITEM_DEFINED_TRANSFORMATION($,$,#935,#952);
#21=ITEM_DEFINED_TRANSFORMATION($,$,#935,#953);
#22=ITEM_DEFINED_TRANSFORMATION($,$,#935,#954);
#23=ITEM_DEFINED_TRANSFORMATION($,$,#935,#955);
#24=ITEM_DEFINED_TRANSFORMATION($,$,#935,#956);
#25=ITEM_DEFINED_TRANSFORMATION($,$,#935,#957);
#26=ITEM_DEFINED_TRANSFORMATION($,$,#935,#958);
#27=ITEM_DEFINED_TRANSFORMATION($,$,#935,#959);
#28=ITEM_DEFINED_TRANSFORMATION($,$,#908,#986);
#29=ITEM_DEFINED_TRANSFORMATION($,$,#934,#987);
#30=ITEM_DEFINED_TRANSFORMATION($,$,#960,#988);
#31=ITEM_DEFINED_TRANSFORMATION($,$,#979,#989);
#32=ITEM_DEFINED_TRANSFORMATION($,$,#985,#990);
#33=ITEM_DEFINED_TRANSFORMATION($,$,#985,#991);
#34=ITEM_DEFINED_TRANSFORMATION($,$,#985,#992);
#35=ITEM_DEFINED_TRANSFORMATION($,$,#985,#993);
#36=ITEM_DEFINED_TRANSFORMATION($,$,#985,#994);
#37=ITEM_DEFINED_TRANSFORMATION($,$,#985,#995);
#38=ITEM_DEFINED_TRANSFORMATION($,$,#985,#996);
#39=ITEM_DEFINED_TRANSFORMATION($,$,#985,#997);
#40=ITEM_DEFINED_TRANSFORMATION($,$,#985,#998);
#41=ITEM_DEFINED_TRANSFORMATION($,$,#985,#999);
#42=ITEM_DEFINED_TRANSFORMATION($,$,#985,#1000);
#43=ITEM_DEFINED_TRANSFORMATION($,$,#985,#1001);
#44=(
REPRESENTATION_RELATIONSHIP($,$,#1583,#1582)
REPRESENTATION_RELATIONSHIP_WITH_TRANSFORMATION(#12)
SHAPE_REPRESENTATION_RELATIONSHIP()
);
#45=(
REPRESENTATION_RELATIONSHIP($,$,#1583,#1582)
REPRESENTATION_RELATIONSHIP_WITH_TRANSFORMATION(#13)
SHAPE_REPRESENTATION_RELATIONSHIP()
);
#46=(
REPRESENTATION_RELATIONSHIP($,$,#1583,#1582)
REPRESENTATION_RELATIONSHIP_WITH_TRANSFORMATION(#14)
SHAPE_REPRESENTATION_RELATIONSHIP()
);
#47=(
REPRESENTATION_RELATIONSHIP($,$,#1583,#1582)
REPRESENTATION_RELATIONSHIP_WITH_TRANSFORMATION(#15)
SHAPE_REPRESENTATION_RELATIONSHIP()
);
#48=(
REPRESENTATION_RELATIONSHIP($,$,#1583,#1582)
REPRESENTATION_RELATIONSHIP_WITH_TRANSFORMATION(#16)
SHAPE_REPRESENTATION_RELATIONSHIP()
);
#49=(
REPRESENTATION_RELATIONSHIP($,$,#1583,#1582)
REPRESENTATION_RELATIONSHIP_WITH_TRANSFORMATION(#17)
SHAPE_REPRESENTATION_RELATIONSHIP()
);
#50=(
REPRESENTATION_RELATIONSHIP($,$,#1583,#1582)
REPRESENTATION_RELATIONSHIP_WITH_TRANSFORMATION(#18)
SHAPE_REPRESENTATION_RELATIONSHIP()
);
#51=(
REPRESENTATION_RELATIONSHIP($,$,#1583,#1582)
REPRESENTATION_RELATIONSHIP_WITH_TRANSFORMATION(#19)
SHAPE_REPRESENTATION_RELATIONSHIP()
);
#52=(
REPRESENTATION_RELATIONSHIP($,$,#1585,#1584)
REPRESENTATION_RELATIONSHIP_WITH_TRANSFORMATION(#20)
SHAPE_REPRESENTATION_RELATIONSHIP()
);
#53=(
REPRESENTATION_RELATIONSHIP($,$,#1585,#1584)
REPRESENTATION_RELATIONSHIP_WITH_TRANSFORMATION(#21)
SHAPE_REPRESENTATION_RELATIONSHIP()
);
#54=(
REPRESENTATION_RELATIONSHIP($,$,#1585,#1584)
REPRESENTATION_RELATIONSHIP_WITH_TRANSFORMATION(#22)
SHAPE_REPRESENTATION_RELATIONSHIP()
);
#55=(
REPRESENTATION_RELATIONSHIP($,$,#1585,#1584)
REPRESENTATION_RELATIONSHIP_WITH_TRANSFORMATION(#23)
SHAPE_REPRESENTATION_RELATIONSHIP()
);
#56=(
REPRESENTATION_RELATIONSHIP($,$,#1585,#1584)
REPRESENTATION_RELATIONSHIP_WITH_TRANSFORMATION(#24)
SHAPE_REPRESENTATION_RELATIONSHIP()
);
#57=(
REPRESENTATION_RELATIONSHIP($,$,#1585,#1584)
REPRESENTATION_RELATIONSHIP_WITH_TRANSFORMATION(#25)
SHAPE_REPRESENTATION_RELATIONSHIP()
);
#58=(
REPRESENTATION_RELATIONSHIP($,$,#1585,#1584)
REPRESENTATION_RELATIONSHIP_WITH_TRANSFORMATION(#26)
SHAPE_REPRESENTATION_RELATIONSHIP()
);
#59=(
REPRESENTATION_RELATIONSHIP($,$,#1585,#1584)
REPRESENTATION_RELATIONSHIP_WITH_TRANSFORMATION(#27)
SHAPE_REPRESENTATION_RELATIONSHIP()
);
#60=(
REPRESENTATION_RELATIONSHIP($,$,#1582,#1581)
REPRESENTATION_RELATIONSHIP_WITH_TRANSFORMATION(#28)
SHAPE_REPRESENTATION_RELATIONSHIP()
);
#61=(
REPRESENTATION_RELATIONSHIP($,$,#1584,#1581)
REPRESENTATION_RELATIONSHIP_WITH_TRANSFORMATION(#29)
SHAPE_REPRESENTATION_RELATIONSHIP()
);
#62=(
REPRESENTATION_RELATIONSHIP($,$,#1586,#1581)
REPRESENTATION_RELATIONSHIP_WITH_TRANSFORMATION(#30)
SHAPE_REPRESENTATION_RELATIONSHIP()
);
#63=(
REPRESENTATION_RELATIONSHIP($,$,#1587,#1581)
REPRESENTATION_RELATIONSHIP_WITH_TRANSFORMATION(#31)
SHAPE_REPRESENTATION_RELATIONSHIP()
);
#64=(
REPRESENTATION_RELATIONSHIP($,$,#1588,#1581)
REPRESENTATION_RELATIONSHIP_WITH_TRANSFORMATION(#32)
SHAPE_REPRESENTATION_RELATIONSHIP()
);
#65=(
REPRESENTATION_RELATIONSHIP($,$,#1588,#1581)
REPRESENTATION_RELATIONSHIP_WITH_TRANSFORMATION(#33)
SHAPE_REPRESENTATION_RELATIONSHIP()
);
#66=(
REPRESENTATION_RELATIONSHIP($,$,#1588,#1581)
REPRESENTATION_RELATIONSHIP_WITH_TRANSFORMATION(#34)
SHAPE_REPRESENTATION_RELATIONSHIP()
);
#67=(
REPRESENTATION_RELATIONSHIP($,$,#1588,#1581)
REPRESENTATION_RELATIONSHIP_WITH_TRANSFORMATION(#35)
SHAPE_REPRESENTATION_RELATIONSHIP()
);
#68=(
REPRESENTATION_RELATIONSHIP($,$,#1588,#1581)
REPRESENTATION_RELATIONSHIP_WITH_TRANSFORMATION(#36)
SHAPE_REPRESENTATION_RELATIONSHIP()
);
#69=(
REPRESENTATION_RELATIONSHIP($,$,#1588,#1581)
REPRESENTATION_RELATIONSHIP_WITH_TRANSFORMATION(#37)
SHAPE_REPRESENTATION_RELATIONSHIP()
);
#70=(
REPRESENTATION_RELATIONSHIP($,$,#1588,#1581)
REPRESENTATION_RELATIONSHIP_WITH_TRANSFORMATION(#38)
SHAPE_REPRESENTATION_RELATIONSHIP()
);
#71=(
REPRESENTATION_RELATIONSHIP($,$,#1588,#1581)
REPRESENTATION_RELATIONSHIP_WITH_TRANSFORMATION(#39)
SHAPE_REPRESENTATION_RELATIONSHIP()
);
#72=(
REPRESENTATION_RELATIONSHIP($,$,#1588,#1581)
REPRESENTATION_RELATIONSHIP_WITH_TRANSFORMATION(#40)
SHAPE_REPRESENTATION_RELATIONSHIP()
);
#73=(
REPRESENTATION_RELATIONSHIP($,$,#1588,#1581)
REPRESENTATION_RELATIONSHIP_WITH_TRANSFORMATION(#41)
SHAPE_REPRESENTATION_RELATIONSHIP()
);
#74=(
REPRESENTATION_RELATIONSHIP($,$,#1588,#1581)
REPRESENTATION_RELATIONSHIP_WITH_TRANSFORMATION(#42)
SHAPE_REPRESENTATION_RELATIONSHIP()
);
#75=(
REPRESENTATION_RELATIONSHIP($,$,#1588,#1581)
REPRESENTATION_RELATIONSHIP_WITH_TRANSFORMATION(#43)
SHAPE_REPRESENTATION_RELATIONSHIP()
);
#76=CONTEXT_DEPENDENT_SHAPE_REPRESENTATION(#44,#1544);
#77=CONTEXT_DEPENDENT_SHAPE_REPRESENTATION(#45,#1545);
#78=CONTEXT_DEPENDENT_SHAPE_REPRESENTATION(#46,#1546);
#79=CONTEXT_DEPENDENT_SHAPE_REPRESENTATION(#47,#1547);
#80=CONTEXT_DEPENDENT_SHAPE_REPRESENTATION(#48,#1548);
#81=CONTEXT_DEPENDENT_SHAPE_REPRESENTATION(#49,#1549);
#82=CONTEXT_DEPENDENT_SHAPE_REPRESENTATION(#50,#1550);
#83=CONTEXT_DEPENDENT_SHAPE_REPRESENTATION(#51,#1551);
#84=CONTEXT_DEPENDENT_SHAPE_REPRESENTATION(#52,#1554);
#85=CONTEXT_DEPENDENT_SHAPE_REPRESENTATION(#53,#1555);
#86=CONTEXT_DEPENDENT_SHAPE_REPRESENTATION(#54,#1556);
#87=CONTEXT_DEPENDENT_SHAPE_REPRESENTATION(#55,#1557);
#88=CONTEXT_DEPENDENT_SHAPE_REPRESENTATION(#56,#1558);
#89=CONTEXT_DEPENDENT_SHAPE_REPRESENTATION(#57,#1559);
#90=CONTEXT_DEPENDENT_SHAPE_REPRESENTATION(#58,#1560);
#91=CONTEXT_DEPENDENT_SHAPE_REPRESENTATION(#59,#1561);
#92=CONTEXT_DEPENDENT_SHAPE_REPRESENTATION(#60,#1565);
#93=CONTEXT_DEPENDENT_SHAPE_REPRESENTATION(#61,#1566);
#94=CONTEXT_DEPENDENT_SHAPE_REPRESENTATION(#62,#1567);
#95=CONTEXT_DEPENDENT_SHAPE_REPRESENTATION(#63,#1568);
#96=CONTEXT_DEPENDENT_SHAPE_REPRESENTATION(#64,#1569);
#97=CONTEXT_DEPENDENT_SHAPE_REPRESENTATION(#65,#1570);
#98=CONTEXT_DEPENDENT_SHAPE_REPRESENTATION(#66,#1571);
#99=CONTEXT_DEPENDENT_SHAPE_REPRESENTATION(#67,#1572);
#100=CONTEXT_DEPENDENT_SHAPE_REPRESENTATION(#68,#1573);
#101=CONTEXT_DEPENDENT_SHAPE_REPRESENTATION(#69,#1574);
#102=CONTEXT_DEPENDENT_SHAPE_REPRESENTATION(#70,#1575);
#103=CONTEXT_DEPENDENT_SHAPE_REPRESENTATION(#71,#1576);
#104=CONTEXT_DEPENDENT_SHAPE_REPRESENTATION(#72,#1577);
#105=CONTEXT_DEPENDENT_SHAPE_REPRESENTATION(#73,#1578);
#106=CONTEXT_DEPENDENT_SHAPE_REPRESENTATION(#74,#1579);
#107=CONTEXT_DEPENDENT_SHAPE_REPRESENTATION(#75,#1580);
#108=NEXT_ASSEMBLY_USAGE_OCCURRENCE('Body001 (Mirror #1):1',
'Body001 (Mirror #1):1','Body001 (Mirror #1):1',#1591,#1592,
'Body001 (Mirror #1):1');
#109=NEXT_ASSEMBLY_USAGE_OCCURRENCE('Body001 (Mirror #1):2',
'Body001 (Mirror #1):2','Body001 (Mirror #1):2',#1591,#1592,
'Body001 (Mirror #1):2');
#110=NEXT_ASSEMBLY_USAGE_OCCURRENCE('Body001 (Mirror #1):3',
'Body001 (Mirror #1):3','Body001 (Mirror #1):3',#1591,#1592,
'Body001 (Mirror #1):3');
#111=NEXT_ASSEMBLY_USAGE_OCCURRENCE('Body001 (Mirror #1):4',
'Body001 (Mirror #1):4','Body001 (Mirror #1):4',#1591,#1592,
'Body001 (Mirror #1):4');
#112=NEXT_ASSEMBLY_USAGE_OCCURRENCE('Body001 (Mirror #1):5',
'Body001 (Mirror #1):5','Body001 (Mirror #1):5',#1591,#1592,
'Body001 (Mirror #1):5');
#113=NEXT_ASSEMBLY_USAGE_OCCURRENCE('Body001 (Mirror #1):6',
'Body001 (Mirror #1):6','Body001 (Mirror #1):6',#1591,#1592,
'Body001 (Mirror #1):6');
#114=NEXT_ASSEMBLY_USAGE_OCCURRENCE('Body001 (Mirror #1):7',
'Body001 (Mirror #1):7','Body001 (Mirror #1):7',#1591,#1592,
'Body001 (Mirror #1):7');
#115=NEXT_ASSEMBLY_USAGE_OCCURRENCE('Body001 (Mirror #1):8',
'Body001 (Mirror #1):8','Body001 (Mirror #1):8',#1591,#1592,
'Body001 (Mirror #1):8');
#116=NEXT_ASSEMBLY_USAGE_OCCURRENCE('Body001:1','Body001:1','Body001:1',
#1593,#1594,'Body001:1');
#117=NEXT_ASSEMBLY_USAGE_OCCURRENCE('Body001:2','Body001:2','Body001:2',
#1593,#1594,'Body001:2');
#118=NEXT_ASSEMBLY_USAGE_OCCURRENCE('Body001:3','Body001:3','Body001:3',
#1593,#1594,'Body001:3');
#119=NEXT_ASSEMBLY_USAGE_OCCURRENCE('Body001:4','Body001:4','Body001:4',
#1593,#1594,'Body001:4');
#120=NEXT_ASSEMBLY_USAGE_OCCURRENCE('Body001:5','Body001:5','Body001:5',
#1593,#1594,'Body001:5');
#121=NEXT_ASSEMBLY_USAGE_OCCURRENCE('Body001:6','Body001:6','Body001:6',
#1593,#1594,'Body001:6');
#122=NEXT_ASSEMBLY_USAGE_OCCURRENCE('Body001:7','Body001:7','Body001:7',
#1593,#1594,'Body001:7');
#123=NEXT_ASSEMBLY_USAGE_OCCURRENCE('Body001:8','Body001:8','Body001:8',
#1593,#1594,'Body001:8');
#124=NEXT_ASSEMBLY_USAGE_OCCURRENCE('Array:1','Array:1','Array:1',#1590,
#1591,'Array:1');
#125=NEXT_ASSEMBLY_USAGE_OCCURRENCE('Array001:1','Array001:1',
'Array001:1',#1590,#1593,'Array001:1');
#126=NEXT_ASSEMBLY_USAGE_OCCURRENCE('Body:1','Body:1','Body:1',#1590,#1595,
'Body:1');
#127=NEXT_ASSEMBLY_USAGE_OCCURRENCE('Body003:1','Body003:1','Body003:1',
#1590,#1596,'Body003:1');
#128=NEXT_ASSEMBLY_USAGE_OCCURRENCE('X-axis:1','X-axis:1','X-axis:1',#1590,
#1597,'X-axis:1');
#129=NEXT_ASSEMBLY_USAGE_OCCURRENCE('X-axis:2','X-axis:2','X-axis:2',#1590,
#1597,'X-axis:2');
#130=NEXT_ASSEMBLY_USAGE_OCCURRENCE('X-axis:3','X-axis:3','X-axis:3',#1590,
#1597,'X-axis:3');
#131=NEXT_ASSEMBLY_USAGE_OCCURRENCE('X-axis:4','X-axis:4','X-axis:4',#1590,
#1597,'X-axis:4');
#132=NEXT_ASSEMBLY_USAGE_OCCURRENCE('X-axis:5','X-axis:5','X-axis:5',#1590,
#1597,'X-axis:5');
#133=NEXT_ASSEMBLY_USAGE_OCCURRENCE('X-axis:6','X-axis:6','X-axis:6',#1590,
#1597,'X-axis:6');
#134=NEXT_ASSEMBLY_USAGE_OCCURRENCE('X-axis:7','X-axis:7','X-axis:7',#1590,
#1597,'X-axis:7');
#135=NEXT_ASSEMBLY_USAGE_OCCURRENCE('X-axis:8','X-axis:8','X-axis:8',#1590,
#1597,'X-axis:8');
#136=NEXT_ASSEMBLY_USAGE_OCCURRENCE('X-axis:9','X-axis:9','X-axis:9',#1590,
#1597,'X-axis:9');
#137=NEXT_ASSEMBLY_USAGE_OCCURRENCE('X-axis:10','X-axis:10','X-axis:10',
#1590,#1597,'X-axis:10');
#138=NEXT_ASSEMBLY_USAGE_OCCURRENCE('X-axis:11','X-axis:11','X-axis:11',
#1590,#1597,'X-axis:11');
#139=NEXT_ASSEMBLY_USAGE_OCCURRENCE('X-axis:12','X-axis:12','X-axis:12',
#1590,#1597,'X-axis:12');
#140=SHAPE_REPRESENTATION_RELATIONSHIP('SRR','None',#1583,#144);
#141=SHAPE_REPRESENTATION_RELATIONSHIP('SRR','None',#1585,#145);
#142=SHAPE_REPRESENTATION_RELATIONSHIP('SRR','None',#1586,#146);
#143=SHAPE_REPRESENTATION_RELATIONSHIP('SRR','None',#1587,#147);
#144=ADVANCED_BREP_SHAPE_REPRESENTATION('',(#152),#1522);
#145=ADVANCED_BREP_SHAPE_REPRESENTATION('',(#153),#1524);
#146=ADVANCED_BREP_SHAPE_REPRESENTATION('',(#154),#1525);
#147=ADVANCED_BREP_SHAPE_REPRESENTATION('',(#155),#1526);
#148=STYLED_ITEM('',(#1626),#152);
#149=STYLED_ITEM('',(#1626),#153);
#150=STYLED_ITEM('',(#1627),#154);
#151=STYLED_ITEM('',(#1628),#155);
#152=MANIFOLD_SOLID_BREP('Body1',#847);
#153=MANIFOLD_SOLID_BREP('Body1',#848);
#154=MANIFOLD_SOLID_BREP('Body1',#849);
#155=MANIFOLD_SOLID_BREP('Body1',#850);
#156=CIRCLE('',#913,0.21);
#157=CIRCLE('',#914,0.21);
#158=CIRCLE('',#920,0.21);
#159=CIRCLE('',#921,0.21);
#160=CIRCLE('',#939,0.21);
#161=CIRCLE('',#940,0.21);
#162=CIRCLE('',#946,0.21);
#163=CIRCLE('',#947,0.21);
#164=CIRCLE('',#973,0.195);
#165=CIRCLE('',#977,0.195);
#166=CIRCLE('',#981,0.195);
#167=CIRCLE('',#982,0.195);
#168=CYLINDRICAL_SURFACE('',#912,0.21);
#169=CYLINDRICAL_SURFACE('',#919,0.21);
#170=CYLINDRICAL_SURFACE('',#938,0.21);
#171=CYLINDRICAL_SURFACE('',#945,0.21);
#172=CYLINDRICAL_SURFACE('',#976,0.195);
#173=CYLINDRICAL_SURFACE('',#980,0.195);
#174=FACE_OUTER_BOUND('',#217,.T.);
#175=FACE_OUTER_BOUND('',#218,.T.);
#176=FACE_OUTER_BOUND('',#219,.T.);
#177=FACE_OUTER_BOUND('',#220,.T.);
#178=FACE_OUTER_BOUND('',#221,.T.);
#179=FACE_OUTER_BOUND('',#222,.T.);
#180=FACE_OUTER_BOUND('',#223,.T.);
#181=FACE_OUTER_BOUND('',#224,.T.);
#182=FACE_OUTER_BOUND('',#225,.T.);
#183=FACE_OUTER_BOUND('',#226,.T.);
#184=FACE_OUTER_BOUND('',#227,.T.);
#185=FACE_OUTER_BOUND('',#228,.T.);
#186=FACE_OUTER_BOUND('',#229,.T.);
#187=FACE_OUTER_BOUND('',#230,.T.);
#188=FACE_OUTER_BOUND('',#231,.T.);
#189=FACE_OUTER_BOUND('',#232,.T.);
#190=FACE_OUTER_BOUND('',#233,.T.);
#191=FACE_OUTER_BOUND('',#234,.T.);
#192=FACE_OUTER_BOUND('',#235,.T.);
#193=FACE_OUTER_BOUND('',#236,.T.);
#194=FACE_OUTER_BOUND('',#237,.T.);
#195=FACE_OUTER_BOUND('',#238,.T.);
#196=FACE_OUTER_BOUND('',#239,.T.);
#197=FACE_OUTER_BOUND('',#240,.T.);
#198=FACE_OUTER_BOUND('',#241,.T.);
#199=FACE_OUTER_BOUND('',#242,.T.);
#200=FACE_OUTER_BOUND('',#243,.T.);
#201=FACE_OUTER_BOUND('',#244,.T.);
#202=FACE_OUTER_BOUND('',#245,.T.);
#203=FACE_OUTER_BOUND('',#246,.T.);
#204=FACE_OUTER_BOUND('',#247,.T.);
#205=FACE_OUTER_BOUND('',#248,.T.);
#206=FACE_OUTER_BOUND('',#249,.T.);
#207=FACE_OUTER_BOUND('',#250,.T.);
#208=FACE_OUTER_BOUND('',#251,.T.);
#209=FACE_OUTER_BOUND('',#252,.T.);
#210=FACE_OUTER_BOUND('',#254,.T.);
#211=FACE_OUTER_BOUND('',#255,.T.);
#212=FACE_OUTER_BOUND('',#256,.T.);
#213=FACE_OUTER_BOUND('',#257,.T.);
#214=FACE_OUTER_BOUND('',#258,.T.);
#215=FACE_OUTER_BOUND('',#259,.T.);
#216=FACE_OUTER_BOUND('',#260,.T.);
#217=EDGE_LOOP('',(#579,#580,#581,#582));
#218=EDGE_LOOP('',(#583,#584,#585,#586));
#219=EDGE_LOOP('',(#587,#588,#589,#590));
#220=EDGE_LOOP('',(#591,#592,#593,#594));
#221=EDGE_LOOP('',(#595,#596,#597,#598));
#222=EDGE_LOOP('',(#599,#600,#601,#602));
#223=EDGE_LOOP('',(#603,#604,#605,#606));
#224=EDGE_LOOP('',(#607,#608,#609,#610));
#225=EDGE_LOOP('',(#611,#612,#613,#614));
#226=EDGE_LOOP('',(#615,#616,#617,#618));
#227=EDGE_LOOP('',(#619,#620,#621,#622,#623,#624,#625,#626,#627,#628));
#228=EDGE_LOOP('',(#629,#630,#631,#632,#633,#634,#635,#636,#637,#638));
#229=EDGE_LOOP('',(#639,#640,#641,#642));
#230=EDGE_LOOP('',(#643,#644,#645,#646));
#231=EDGE_LOOP('',(#647,#648,#649,#650));
#232=EDGE_LOOP('',(#651,#652,#653,#654));
#233=EDGE_LOOP('',(#655,#656,#657,#658));
#234=EDGE_LOOP('',(#659,#660,#661,#662));
#235=EDGE_LOOP('',(#663,#664,#665,#666));
#236=EDGE_LOOP('',(#667,#668,#669,#670));
#237=EDGE_LOOP('',(#671,#672,#673,#674));
#238=EDGE_LOOP('',(#675,#676,#677,#678));
#239=EDGE_LOOP('',(#679,#680,#681,#682,#683,#684,#685,#686,#687,#688));
#240=EDGE_LOOP('',(#689,#690,#691,#692,#693,#694,#695,#696,#697,#698));
#241=EDGE_LOOP('',(#699,#700,#701,#702));
#242=EDGE_LOOP('',(#703,#704,#705,#706));
#243=EDGE_LOOP('',(#707,#708,#709,#710));
#244=EDGE_LOOP('',(#711,#712,#713,#714));
#245=EDGE_LOOP('',(#715,#716,#717,#718));
#246=EDGE_LOOP('',(#719,#720,#721,#722));
#247=EDGE_LOOP('',(#723,#724,#725,#726));
#248=EDGE_LOOP('',(#727,#728,#729,#730));
#249=EDGE_LOOP('',(#731,#732,#733,#734));
#250=EDGE_LOOP('',(#735,#736,#737,#738));
#251=EDGE_LOOP('',(#739,#740,#741,#742));
#252=EDGE_LOOP('',(#743,#744,#745,#746));
#253=EDGE_LOOP('',(#747));
#254=EDGE_LOOP('',(#748,#749,#750,#751));
#255=EDGE_LOOP('',(#752,#753,#754,#755));
#256=EDGE_LOOP('',(#756,#757,#758,#759));
#257=EDGE_LOOP('',(#760));
#258=EDGE_LOOP('',(#761,#762,#763,#764));
#259=EDGE_LOOP('',(#765));
#260=EDGE_LOOP('',(#766));
#261=LINE('',#1280,#343);
#262=LINE('',#1282,#344);
#263=LINE('',#1284,#345);
#264=LINE('',#1285,#346);
#265=LINE('',#1288,#347);
#266=LINE('',#1290,#348);
#267=LINE('',#1291,#349);
#268=LINE('',#1296,#350);
#269=LINE('',#1300,#351);
#270=LINE('',#1302,#352);
#271=LINE('',#1303,#353);
#272=LINE('',#1306,#354);
#273=LINE('',#1308,#355);
#274=LINE('',#1309,#356);
#275=LINE('',#1312,#357);
#276=LINE('',#1314,#358);
#277=LINE('',#1315,#359);
#278=LINE('',#1318,#360);
#279=LINE('',#1320,#361);
#280=LINE('',#1321,#362);
#281=LINE('',#1326,#363);
#282=LINE('',#1330,#364);
#283=LINE('',#1332,#365);
#284=LINE('',#1333,#366);
#285=LINE('',#1335,#367);
#286=LINE('',#1336,#368);
#287=LINE('',#1352,#369);
#288=LINE('',#1354,#370);
#289=LINE('',#1356,#371);
#290=LINE('',#1357,#372);
#291=LINE('',#1360,#373);
#292=LINE('',#1362,#374);
#293=LINE('',#1363,#375);
#294=LINE('',#1368,#376);
#295=LINE('',#1372,#377);
#296=LINE('',#1374,#378);
#297=LINE('',#1375,#379);
#298=LINE('',#1378,#380);
#299=LINE('',#1380,#381);
#300=LINE('',#1381,#382);
#301=LINE('',#1384,#383);
#302=LINE('',#1386,#384);
#303=LINE('',#1387,#385);
#304=LINE('',#1390,#386);
#305=LINE('',#1392,#387);
#306=LINE('',#1393,#388);
#307=LINE('',#1398,#389);
#308=LINE('',#1402,#390);
#309=LINE('',#1404,#391);
#310=LINE('',#1405,#392);
#311=LINE('',#1407,#393);
#312=LINE('',#1408,#394);
#313=LINE('',#1423,#395);
#314=LINE('',#1425,#396);
#315=LINE('',#1427,#397);
#316=LINE('',#1428,#398);
#317=LINE('',#1431,#399);
#318=LINE('',#1433,#400);
#319=LINE('',#1434,#401);
#320=LINE('',#1437,#402);
#321=LINE('',#1439,#403);
#322=LINE('',#1440,#404);
#323=LINE('',#1443,#405);
#324=LINE('',#1445,#406);
#325=LINE('',#1446,#407);
#326=LINE('',#1449,#408);
#327=LINE('',#1451,#409);
#328=LINE('',#1452,#410);
#329=LINE('',#1455,#411);
#330=LINE('',#1456,#412);
#331=LINE('',#1459,#413);
#332=LINE('',#1460,#414);
#333=LINE('',#1462,#415);
#334=LINE('',#1464,#416);
#335=LINE('',#1465,#417);
#336=LINE('',#1468,#418);
#337=LINE('',#1469,#419);
#338=LINE('',#1472,#420);
#339=LINE('',#1473,#421);
#340=LINE('',#1475,#422);
#341=LINE('',#1483,#423);
#342=LINE('',#1490,#424);
#343=VECTOR('',#1010,1.);
#344=VECTOR('',#1011,1.);
#345=VECTOR('',#1012,1.);
#346=VECTOR('',#1013,1.);
#347=VECTOR('',#1016,1.);
#348=VECTOR('',#1017,1.);
#349=VECTOR('',#1018,1.);
#350=VECTOR('',#1023,1.);
#351=VECTOR('',#1028,1.);
#352=VECTOR('',#1029,1.);
#353=VECTOR('',#1030,1.);
#354=VECTOR('',#1033,1.);
#355=VECTOR('',#1034,1.);
#356=VECTOR('',#1035,1.);
#357=VECTOR('',#1038,1.);
#358=VECTOR('',#1039,1.);
#359=VECTOR('',#1040,1.);
#360=VECTOR('',#1043,1.);
#361=VECTOR('',#1044,1.);
#362=VECTOR('',#1045,1.);
#363=VECTOR('',#1050,1.);
#364=VECTOR('',#1055,1.);
#365=VECTOR('',#1056,1.);
#366=VECTOR('',#1057,1.);
#367=VECTOR('',#1060,1.);
#368=VECTOR('',#1061,1.);
#369=VECTOR('',#1088,1.);
#370=VECTOR('',#1089,1.);
#371=VECTOR('',#1090,1.);
#372=VECTOR('',#1091,1.);
#373=VECTOR('',#1094,1.);
#374=VECTOR('',#1095,1.);
#375=VECTOR('',#1096,1.);
#376=VECTOR('',#1101,1.);
#377=VECTOR('',#1106,1.);
#378=VECTOR('',#1107,1.);
#379=VECTOR('',#1108,1.);
#380=VECTOR('',#1111,1.);
#381=VECTOR('',#1112,1.);
#382=VECTOR('',#1113,1.);
#383=VECTOR('',#1116,1.);
#384=VECTOR('',#1117,1.);
#385=VECTOR('',#1118,1.);
#386=VECTOR('',#1121,1.);
#387=VECTOR('',#1122,1.);
#388=VECTOR('',#1123,1.);
#389=VECTOR('',#1128,1.);
#390=VECTOR('',#1133,1.);
#391=VECTOR('',#1134,1.);
#392=VECTOR('',#1135,1.);
#393=VECTOR('',#1138,1.);
#394=VECTOR('',#1139,1.);
#395=VECTOR('',#1164,1.);
#396=VECTOR('',#1165,1.);
#397=VECTOR('',#1166,1.);
#398=VECTOR('',#1167,1.);
#399=VECTOR('',#1170,0.999999999999774);
#400=VECTOR('',#1171,1.);
#401=VECTOR('',#1172,0.999999999999774);
#402=VECTOR('',#1175,1.);
#403=VECTOR('',#1176,1.);
#404=VECTOR('',#1177,1.);
#405=VECTOR('',#1180,1.00000000000011);
#406=VECTOR('',#1181,1.);
#407=VECTOR('',#1182,1.00000000000011);
#408=VECTOR('',#1185,1.);
#409=VECTOR('',#1186,1.);
#410=VECTOR('',#1187,1.);
#411=VECTOR('',#1190,1.);
#412=VECTOR('',#1191,0.999999999999774);
#413=VECTOR('',#1194,1.);
#414=VECTOR('',#1195,1.);
#415=VECTOR('',#1198,0.999999999999774);
#416=VECTOR('',#1201,1.);
#417=VECTOR('',#1202,1.);
#418=VECTOR('',#1205,1.);
#419=VECTOR('',#1206,1.00000000000011);
#420=VECTOR('',#1209,1.00000000000011);
#421=VECTOR('',#1210,1.);
#422=VECTOR('',#1213,1.);
#423=VECTOR('',#1224,0.195);
#424=VECTOR('',#1233,0.195);
#425=VERTEX_POINT('',#1278);
#426=VERTEX_POINT('',#1279);
#427=VERTEX_POINT('',#1281);
#428=VERTEX_POINT('',#1283);
#429=VERTEX_POINT('',#1287);
#430=VERTEX_POINT('',#1289);
#431=VERTEX_POINT('',#1293);
#432=VERTEX_POINT('',#1295);
#433=VERTEX_POINT('',#1299);
#434=VERTEX_POINT('',#1301);
#435=VERTEX_POINT('',#1305);
#436=VERTEX_POINT('',#1307);
#437=VERTEX_POINT('',#1311);
#438=VERTEX_POINT('',#1313);
#439=VERTEX_POINT('',#1317);
#440=VERTEX_POINT('',#1319);
#441=VERTEX_POINT('',#1323);
#442=VERTEX_POINT('',#1325);
#443=VERTEX_POINT('',#1329);
#444=VERTEX_POINT('',#1331);
#445=VERTEX_POINT('',#1350);
#446=VERTEX_POINT('',#1351);
#447=VERTEX_POINT('',#1353);
#448=VERTEX_POINT('',#1355);
#449=VERTEX_POINT('',#1359);
#450=VERTEX_POINT('',#1361);
#451=VERTEX_POINT('',#1365);
#452=VERTEX_POINT('',#1367);
#453=VERTEX_POINT('',#1371);
#454=VERTEX_POINT('',#1373);
#455=VERTEX_POINT('',#1377);
#456=VERTEX_POINT('',#1379);
#457=VERTEX_POINT('',#1383);
#458=VERTEX_POINT('',#1385);
#459=VERTEX_POINT('',#1389);
#460=VERTEX_POINT('',#1391);
#461=VERTEX_POINT('',#1395);
#462=VERTEX_POINT('',#1397);
#463=VERTEX_POINT('',#1401);
#464=VERTEX_POINT('',#1403);
#465=VERTEX_POINT('',#1421);
#466=VERTEX_POINT('',#1422);
#467=VERTEX_POINT('',#1424);
#468=VERTEX_POINT('',#1426);
#469=VERTEX_POINT('',#1430);
#470=VERTEX_POINT('',#1432);
#471=VERTEX_POINT('',#1436);
#472=VERTEX_POINT('',#1438);
#473=VERTEX_POINT('',#1442);
#474=VERTEX_POINT('',#1444);
#475=VERTEX_POINT('',#1448);
#476=VERTEX_POINT('',#1450);
#477=VERTEX_POINT('',#1454);
#478=VERTEX_POINT('',#1458);
#479=VERTEX_POINT('',#1467);
#480=VERTEX_POINT('',#1471);
#481=VERTEX_POINT('',#1476);
#482=VERTEX_POINT('',#1481);
#483=VERTEX_POINT('',#1487);
#484=VERTEX_POINT('',#1489);
#485=EDGE_CURVE('',#425,#426,#261,.T.);
#486=EDGE_CURVE('',#426,#427,#262,.T.);
#487=EDGE_CURVE('',#428,#427,#263,.T.);
#488=EDGE_CURVE('',#425,#428,#264,.T.);
#489=EDGE_CURVE('',#427,#429,#265,.T.);
#490=EDGE_CURVE('',#430,#429,#266,.T.);
#491=EDGE_CURVE('',#428,#430,#267,.T.);
#492=EDGE_CURVE('',#429,#431,#156,.T.);
#493=EDGE_CURVE('',#432,#431,#268,.T.);
#494=EDGE_CURVE('',#430,#432,#157,.T.);
#495=EDGE_CURVE('',#431,#433,#269,.T.);
#496=EDGE_CURVE('',#434,#433,#270,.T.);
#497=EDGE_CURVE('',#432,#434,#271,.T.);
#498=EDGE_CURVE('',#433,#435,#272,.T.);
#499=EDGE_CURVE('',#436,#435,#273,.T.);
#500=EDGE_CURVE('',#434,#436,#274,.T.);
#501=EDGE_CURVE('',#435,#437,#275,.T.);
#502=EDGE_CURVE('',#438,#437,#276,.T.);
#503=EDGE_CURVE('',#436,#438,#277,.T.);
#504=EDGE_CURVE('',#437,#439,#278,.T.);
#505=EDGE_CURVE('',#440,#439,#279,.T.);
#506=EDGE_CURVE('',#438,#440,#280,.T.);
#507=EDGE_CURVE('',#439,#441,#158,.T.);
#508=EDGE_CURVE('',#442,#441,#281,.T.);
#509=EDGE_CURVE('',#440,#442,#159,.T.);
#510=EDGE_CURVE('',#441,#443,#282,.T.);
#511=EDGE_CURVE('',#444,#443,#283,.T.);
#512=EDGE_CURVE('',#442,#444,#284,.T.);
#513=EDGE_CURVE('',#443,#426,#285,.T.);
#514=EDGE_CURVE('',#444,#425,#286,.T.);
#515=EDGE_CURVE('',#445,#446,#287,.T.);
#516=EDGE_CURVE('',#445,#447,#288,.T.);
#517=EDGE_CURVE('',#447,#448,#289,.T.);
#518=EDGE_CURVE('',#446,#448,#290,.T.);
#519=EDGE_CURVE('',#447,#449,#291,.T.);
#520=EDGE_CURVE('',#449,#450,#292,.T.);
#521=EDGE_CURVE('',#448,#450,#293,.T.);
#522=EDGE_CURVE('',#449,#451,#160,.T.);
#523=EDGE_CURVE('',#451,#452,#294,.T.);
#524=EDGE_CURVE('',#450,#452,#161,.T.);
#525=EDGE_CURVE('',#451,#453,#295,.T.);
#526=EDGE_CURVE('',#453,#454,#296,.T.);
#527=EDGE_CURVE('',#452,#454,#297,.T.);
#528=EDGE_CURVE('',#453,#455,#298,.T.);
#529=EDGE_CURVE('',#455,#456,#299,.T.);
#530=EDGE_CURVE('',#454,#456,#300,.T.);
#531=EDGE_CURVE('',#455,#457,#301,.T.);
#532=EDGE_CURVE('',#457,#458,#302,.T.);
#533=EDGE_CURVE('',#456,#458,#303,.T.);
#534=EDGE_CURVE('',#457,#459,#304,.T.);
#535=EDGE_CURVE('',#459,#460,#305,.T.);
#536=EDGE_CURVE('',#458,#460,#306,.T.);
#537=EDGE_CURVE('',#459,#461,#162,.T.);
#538=EDGE_CURVE('',#461,#462,#307,.T.);
#539=EDGE_CURVE('',#460,#462,#163,.T.);
#540=EDGE_CURVE('',#461,#463,#308,.T.);
#541=EDGE_CURVE('',#463,#464,#309,.T.);
#542=EDGE_CURVE('',#462,#464,#310,.T.);
#543=EDGE_CURVE('',#463,#445,#311,.T.);
#544=EDGE_CURVE('',#464,#446,#312,.T.);
#545=EDGE_CURVE('',#465,#466,#313,.T.);
#546=EDGE_CURVE('',#466,#467,#314,.T.);
#547=EDGE_CURVE('',#468,#467,#315,.T.);
#548=EDGE_CURVE('',#465,#468,#316,.T.);
#549=EDGE_CURVE('',#469,#465,#317,.T.);
#550=EDGE_CURVE('',#469,#470,#318,.T.);
#551=EDGE_CURVE('',#470,#466,#319,.T.);
#552=EDGE_CURVE('',#465,#471,#320,.T.);
#553=EDGE_CURVE('',#468,#472,#321,.T.);
#554=EDGE_CURVE('',#471,#472,#322,.T.);
#555=EDGE_CURVE('',#467,#473,#323,.T.);
#556=EDGE_CURVE('',#474,#473,#324,.T.);
#557=EDGE_CURVE('',#468,#474,#325,.T.);
#558=EDGE_CURVE('',#466,#475,#326,.T.);
#559=EDGE_CURVE('',#475,#476,#327,.T.);
#560=EDGE_CURVE('',#467,#476,#328,.T.);
#561=EDGE_CURVE('',#470,#477,#329,.T.);
#562=EDGE_CURVE('',#477,#475,#330,.T.);
#563=EDGE_CURVE('',#469,#478,#331,.T.);
#564=EDGE_CURVE('',#478,#477,#332,.T.);
#565=EDGE_CURVE('',#478,#471,#333,.T.);
#566=EDGE_CURVE('',#471,#475,#334,.T.);
#567=EDGE_CURVE('',#472,#476,#335,.T.);
#568=EDGE_CURVE('',#474,#479,#336,.T.);
#569=EDGE_CURVE('',#472,#479,#337,.T.);
#570=EDGE_CURVE('',#476,#480,#338,.T.);
#571=EDGE_CURVE('',#473,#480,#339,.T.);
#572=EDGE_CURVE('',#479,#480,#340,.T.);
#573=EDGE_CURVE('',#481,#481,#164,.T.);
#574=EDGE_CURVE('',#482,#482,#165,.T.);
#575=EDGE_CURVE('',#482,#481,#341,.T.);
#576=EDGE_CURVE('',#483,#483,#166,.T.);
#577=EDGE_CURVE('',#483,#484,#342,.T.);
#578=EDGE_CURVE('',#484,#484,#167,.T.);
#579=ORIENTED_EDGE('',*,*,#485,.T.);
#580=ORIENTED_EDGE('',*,*,#486,.T.);
#581=ORIENTED_EDGE('',*,*,#487,.F.);
#582=ORIENTED_EDGE('',*,*,#488,.F.);
#583=ORIENTED_EDGE('',*,*,#487,.T.);
#584=ORIENTED_EDGE('',*,*,#489,.T.);
#585=ORIENTED_EDGE('',*,*,#490,.F.);
#586=ORIENTED_EDGE('',*,*,#491,.F.);
#587=ORIENTED_EDGE('',*,*,#490,.T.);
#588=ORIENTED_EDGE('',*,*,#492,.T.);
#589=ORIENTED_EDGE('',*,*,#493,.F.);
#590=ORIENTED_EDGE('',*,*,#494,.F.);
#591=ORIENTED_EDGE('',*,*,#493,.T.);
#592=ORIENTED_EDGE('',*,*,#495,.T.);
#593=ORIENTED_EDGE('',*,*,#496,.F.);
#594=ORIENTED_EDGE('',*,*,#497,.F.);
#595=ORIENTED_EDGE('',*,*,#496,.T.);
#596=ORIENTED_EDGE('',*,*,#498,.T.);
#597=ORIENTED_EDGE('',*,*,#499,.F.);
#598=ORIENTED_EDGE('',*,*,#500,.F.);
#599=ORIENTED_EDGE('',*,*,#499,.T.);
#600=ORIENTED_EDGE('',*,*,#501,.T.);
#601=ORIENTED_EDGE('',*,*,#502,.F.);
#602=ORIENTED_EDGE('',*,*,#503,.F.);
#603=ORIENTED_EDGE('',*,*,#502,.T.);
#604=ORIENTED_EDGE('',*,*,#504,.T.);
#605=ORIENTED_EDGE('',*,*,#505,.F.);
#606=ORIENTED_EDGE('',*,*,#506,.F.);
#607=ORIENTED_EDGE('',*,*,#505,.T.);
#608=ORIENTED_EDGE('',*,*,#507,.T.);
#609=ORIENTED_EDGE('',*,*,#508,.F.);
#610=ORIENTED_EDGE('',*,*,#509,.F.);
#611=ORIENTED_EDGE('',*,*,#508,.T.);
#612=ORIENTED_EDGE('',*,*,#510,.T.);
#613=ORIENTED_EDGE('',*,*,#511,.F.);
#614=ORIENTED_EDGE('',*,*,#512,.F.);
#615=ORIENTED_EDGE('',*,*,#511,.T.);
#616=ORIENTED_EDGE('',*,*,#513,.T.);
#617=ORIENTED_EDGE('',*,*,#485,.F.);
#618=ORIENTED_EDGE('',*,*,#514,.F.);
#619=ORIENTED_EDGE('',*,*,#488,.T.);
#620=ORIENTED_EDGE('',*,*,#491,.T.);
#621=ORIENTED_EDGE('',*,*,#494,.T.);
#622=ORIENTED_EDGE('',*,*,#497,.T.);
#623=ORIENTED_EDGE('',*,*,#500,.T.);
#624=ORIENTED_EDGE('',*,*,#503,.T.);
#625=ORIENTED_EDGE('',*,*,#506,.T.);
#626=ORIENTED_EDGE('',*,*,#509,.T.);
#627=ORIENTED_EDGE('',*,*,#512,.T.);
#628=ORIENTED_EDGE('',*,*,#514,.T.);
#629=ORIENTED_EDGE('',*,*,#486,.F.);
#630=ORIENTED_EDGE('',*,*,#513,.F.);
#631=ORIENTED_EDGE('',*,*,#510,.F.);
#632=ORIENTED_EDGE('',*,*,#507,.F.);
#633=ORIENTED_EDGE('',*,*,#504,.F.);
#634=ORIENTED_EDGE('',*,*,#501,.F.);
#635=ORIENTED_EDGE('',*,*,#498,.F.);
#636=ORIENTED_EDGE('',*,*,#495,.F.);
#637=ORIENTED_EDGE('',*,*,#492,.F.);
#638=ORIENTED_EDGE('',*,*,#489,.F.);
#639=ORIENTED_EDGE('',*,*,#515,.F.);
#640=ORIENTED_EDGE('',*,*,#516,.T.);
#641=ORIENTED_EDGE('',*,*,#517,.T.);
#642=ORIENTED_EDGE('',*,*,#518,.F.);
#643=ORIENTED_EDGE('',*,*,#517,.F.);
#644=ORIENTED_EDGE('',*,*,#519,.T.);
#645=ORIENTED_EDGE('',*,*,#520,.T.);
#646=ORIENTED_EDGE('',*,*,#521,.F.);
#647=ORIENTED_EDGE('',*,*,#520,.F.);
#648=ORIENTED_EDGE('',*,*,#522,.T.);
#649=ORIENTED_EDGE('',*,*,#523,.T.);
#650=ORIENTED_EDGE('',*,*,#524,.F.);
#651=ORIENTED_EDGE('',*,*,#523,.F.);
#652=ORIENTED_EDGE('',*,*,#525,.T.);
#653=ORIENTED_EDGE('',*,*,#526,.T.);
#654=ORIENTED_EDGE('',*,*,#527,.F.);
#655=ORIENTED_EDGE('',*,*,#526,.F.);
#656=ORIENTED_EDGE('',*,*,#528,.T.);
#657=ORIENTED_EDGE('',*,*,#529,.T.);
#658=ORIENTED_EDGE('',*,*,#530,.F.);
#659=ORIENTED_EDGE('',*,*,#529,.F.);
#660=ORIENTED_EDGE('',*,*,#531,.T.);
#661=ORIENTED_EDGE('',*,*,#532,.T.);
#662=ORIENTED_EDGE('',*,*,#533,.F.);
#663=ORIENTED_EDGE('',*,*,#532,.F.);
#664=ORIENTED_EDGE('',*,*,#534,.T.);
#665=ORIENTED_EDGE('',*,*,#535,.T.);
#666=ORIENTED_EDGE('',*,*,#536,.F.);
#667=ORIENTED_EDGE('',*,*,#535,.F.);
#668=ORIENTED_EDGE('',*,*,#537,.T.);
#669=ORIENTED_EDGE('',*,*,#538,.T.);
#670=ORIENTED_EDGE('',*,*,#539,.F.);
#671=ORIENTED_EDGE('',*,*,#538,.F.);
#672=ORIENTED_EDGE('',*,*,#540,.T.);
#673=ORIENTED_EDGE('',*,*,#541,.T.);
#674=ORIENTED_EDGE('',*,*,#542,.F.);
#675=ORIENTED_EDGE('',*,*,#541,.F.);
#676=ORIENTED_EDGE('',*,*,#543,.T.);
#677=ORIENTED_EDGE('',*,*,#515,.T.);
#678=ORIENTED_EDGE('',*,*,#544,.F.);
#679=ORIENTED_EDGE('',*,*,#516,.F.);
#680=ORIENTED_EDGE('',*,*,#543,.F.);
#681=ORIENTED_EDGE('',*,*,#540,.F.);
#682=ORIENTED_EDGE('',*,*,#537,.F.);
#683=ORIENTED_EDGE('',*,*,#534,.F.);
#684=ORIENTED_EDGE('',*,*,#531,.F.);
#685=ORIENTED_EDGE('',*,*,#528,.F.);
#686=ORIENTED_EDGE('',*,*,#525,.F.);
#687=ORIENTED_EDGE('',*,*,#522,.F.);
#688=ORIENTED_EDGE('',*,*,#519,.F.);
#689=ORIENTED_EDGE('',*,*,#518,.T.);
#690=ORIENTED_EDGE('',*,*,#521,.T.);
#691=ORIENTED_EDGE('',*,*,#524,.T.);
#692=ORIENTED_EDGE('',*,*,#527,.T.);
#693=ORIENTED_EDGE('',*,*,#530,.T.);
#694=ORIENTED_EDGE('',*,*,#533,.T.);
#695=ORIENTED_EDGE('',*,*,#536,.T.);
#696=ORIENTED_EDGE('',*,*,#539,.T.);
#697=ORIENTED_EDGE('',*,*,#542,.T.);
#698=ORIENTED_EDGE('',*,*,#544,.T.);
#699=ORIENTED_EDGE('',*,*,#545,.T.);
#700=ORIENTED_EDGE('',*,*,#546,.T.);
#701=ORIENTED_EDGE('',*,*,#547,.F.);
#702=ORIENTED_EDGE('',*,*,#548,.F.);
#703=ORIENTED_EDGE('',*,*,#545,.F.);
#704=ORIENTED_EDGE('',*,*,#549,.F.);
#705=ORIENTED_EDGE('',*,*,#550,.T.);
#706=ORIENTED_EDGE('',*,*,#551,.T.);
#707=ORIENTED_EDGE('',*,*,#552,.F.);
#708=ORIENTED_EDGE('',*,*,#548,.T.);
#709=ORIENTED_EDGE('',*,*,#553,.T.);
#710=ORIENTED_EDGE('',*,*,#554,.F.);
#711=ORIENTED_EDGE('',*,*,#547,.T.);
#712=ORIENTED_EDGE('',*,*,#555,.T.);
#713=ORIENTED_EDGE('',*,*,#556,.F.);
#714=ORIENTED_EDGE('',*,*,#557,.F.);
#715=ORIENTED_EDGE('',*,*,#558,.T.);
#716=ORIENTED_EDGE('',*,*,#559,.T.);
#717=ORIENTED_EDGE('',*,*,#560,.F.);
#718=ORIENTED_EDGE('',*,*,#546,.F.);
#719=ORIENTED_EDGE('',*,*,#551,.F.);
#720=ORIENTED_EDGE('',*,*,#561,.T.);
#721=ORIENTED_EDGE('',*,*,#562,.T.);
#722=ORIENTED_EDGE('',*,*,#558,.F.);
#723=ORIENTED_EDGE('',*,*,#563,.T.);
#724=ORIENTED_EDGE('',*,*,#564,.T.);
#725=ORIENTED_EDGE('',*,*,#561,.F.);
#726=ORIENTED_EDGE('',*,*,#550,.F.);
#727=ORIENTED_EDGE('',*,*,#549,.T.);
#728=ORIENTED_EDGE('',*,*,#552,.T.);
#729=ORIENTED_EDGE('',*,*,#565,.F.);
#730=ORIENTED_EDGE('',*,*,#563,.F.);
#731=ORIENTED_EDGE('',*,*,#566,.F.);
#732=ORIENTED_EDGE('',*,*,#554,.T.);
#733=ORIENTED_EDGE('',*,*,#567,.T.);
#734=ORIENTED_EDGE('',*,*,#559,.F.);
#735=ORIENTED_EDGE('',*,*,#557,.T.);
#736=ORIENTED_EDGE('',*,*,#568,.T.);
#737=ORIENTED_EDGE('',*,*,#569,.F.);
#738=ORIENTED_EDGE('',*,*,#553,.F.);
#739=ORIENTED_EDGE('',*,*,#555,.F.);
#740=ORIENTED_EDGE('',*,*,#560,.T.);
#741=ORIENTED_EDGE('',*,*,#570,.T.);
#742=ORIENTED_EDGE('',*,*,#571,.F.);
#743=ORIENTED_EDGE('',*,*,#568,.F.);
#744=ORIENTED_EDGE('',*,*,#556,.T.);
#745=ORIENTED_EDGE('',*,*,#571,.T.);
#746=ORIENTED_EDGE('',*,*,#572,.F.);
#747=ORIENTED_EDGE('',*,*,#573,.F.);
#748=ORIENTED_EDGE('',*,*,#566,.T.);
#749=ORIENTED_EDGE('',*,*,#562,.F.);
#750=ORIENTED_EDGE('',*,*,#564,.F.);
#751=ORIENTED_EDGE('',*,*,#565,.T.);
#752=ORIENTED_EDGE('',*,*,#567,.F.);
#753=ORIENTED_EDGE('',*,*,#569,.T.);
#754=ORIENTED_EDGE('',*,*,#572,.T.);
#755=ORIENTED_EDGE('',*,*,#570,.F.);
#756=ORIENTED_EDGE('',*,*,#574,.F.);
#757=ORIENTED_EDGE('',*,*,#575,.T.);
#758=ORIENTED_EDGE('',*,*,#573,.T.);
#759=ORIENTED_EDGE('',*,*,#575,.F.);
#760=ORIENTED_EDGE('',*,*,#574,.T.);
#761=ORIENTED_EDGE('',*,*,#576,.T.);
#762=ORIENTED_EDGE('',*,*,#577,.T.);
#763=ORIENTED_EDGE('',*,*,#578,.F.);
#764=ORIENTED_EDGE('',*,*,#577,.F.);
#765=ORIENTED_EDGE('',*,*,#576,.F.);
#766=ORIENTED_EDGE('',*,*,#578,.T.);
#767=PLANE('',#910);
#768=PLANE('',#911);
#769=PLANE('',#915);
#770=PLANE('',#916);
#771=PLANE('',#917);
#772=PLANE('',#918);
#773=PLANE('',#922);
#774=PLANE('',#923);
#775=PLANE('',#924);
#776=PLANE('',#925);
#777=PLANE('',#936);
#778=PLANE('',#937);
#779=PLANE('',#941);
#780=PLANE('',#942);
#781=PLANE('',#943);
#782=PLANE('',#944);
#783=PLANE('',#948);
#784=PLANE('',#949);
#785=PLANE('',#950);
#786=PLANE('',#951);
#787=PLANE('',#961);
#788=PLANE('',#962);
#789=PLANE('',#963);
#790=PLANE('',#964);
#791=PLANE('',#965);
#792=PLANE('',#966);
#793=PLANE('',#967);
#794=PLANE('',#968);
#795=PLANE('',#969);
#796=PLANE('',#970);
#797=PLANE('',#971);
#798=PLANE('',#972);
#799=PLANE('',#974);
#800=PLANE('',#975);
#801=PLANE('',#978);
#802=PLANE('',#983);
#803=PLANE('',#984);
#804=ADVANCED_FACE('',(#174),#767,.F.);
#805=ADVANCED_FACE('',(#175),#768,.F.);
#806=ADVANCED_FACE('',(#176),#168,.T.);
#807=ADVANCED_FACE('',(#177),#769,.F.);
#808=ADVANCED_FACE('',(#178),#770,.F.);
#809=ADVANCED_FACE('',(#179),#771,.F.);
#810=ADVANCED_FACE('',(#180),#772,.F.);
#811=ADVANCED_FACE('',(#181),#169,.T.);
#812=ADVANCED_FACE('',(#182),#773,.F.);
#813=ADVANCED_FACE('',(#183),#774,.F.);
#814=ADVANCED_FACE('',(#184),#775,.F.);
#815=ADVANCED_FACE('',(#185),#776,.T.);
#816=ADVANCED_FACE('',(#186),#777,.F.);
#817=ADVANCED_FACE('',(#187),#778,.F.);
#818=ADVANCED_FACE('',(#188),#170,.T.);
#819=ADVANCED_FACE('',(#189),#779,.F.);
#820=ADVANCED_FACE('',(#190),#780,.F.);
#821=ADVANCED_FACE('',(#191),#781,.F.);
#822=ADVANCED_FACE('',(#192),#782,.F.);
#823=ADVANCED_FACE('',(#193),#171,.T.);
#824=ADVANCED_FACE('',(#194),#783,.F.);
#825=ADVANCED_FACE('',(#195),#784,.F.);
#826=ADVANCED_FACE('',(#196),#785,.F.);
#827=ADVANCED_FACE('',(#197),#786,.T.);
#828=ADVANCED_FACE('',(#198),#787,.T.);
#829=ADVANCED_FACE('',(#199),#788,.T.);
#830=ADVANCED_FACE('',(#200),#789,.T.);
#831=ADVANCED_FACE('',(#201),#790,.F.);
#832=ADVANCED_FACE('',(#202),#791,.T.);
#833=ADVANCED_FACE('',(#203),#792,.F.);
#834=ADVANCED_FACE('',(#204),#793,.F.);
#835=ADVANCED_FACE('',(#205),#794,.F.);
#836=ADVANCED_FACE('',(#206),#795,.T.);
#837=ADVANCED_FACE('',(#207),#796,.T.);
#838=ADVANCED_FACE('',(#208),#797,.T.);
#839=ADVANCED_FACE('',(#209,#11),#798,.T.);
#840=ADVANCED_FACE('',(#210),#799,.T.);
#841=ADVANCED_FACE('',(#211),#800,.F.);
#842=ADVANCED_FACE('',(#212),#172,.F.);
#843=ADVANCED_FACE('',(#213),#801,.T.);
#844=ADVANCED_FACE('',(#214),#173,.T.);
#845=ADVANCED_FACE('',(#215),#802,.F.);
#846=ADVANCED_FACE('',(#216),#803,.T.);
#847=CLOSED_SHELL('',(#804,#805,#806,#807,#808,#809,#810,#811,#812,#813,
#814,#815));
#848=CLOSED_SHELL('',(#816,#817,#818,#819,#820,#821,#822,#823,#824,#825,
#826,#827));
#849=CLOSED_SHELL('',(#828,#829,#830,#831,#832,#833,#834,#835,#836,#837,
#838,#839,#840,#841,#842,#843));
#850=CLOSED_SHELL('',(#844,#845,#846));
#851=DERIVED_UNIT_ELEMENT(#861,1.);
#852=DERIVED_UNIT_ELEMENT(#1530,-3.);
#853=DERIVED_UNIT_ELEMENT(#861,1.);
#854=DERIVED_UNIT_ELEMENT(#1530,-3.);
#855=DERIVED_UNIT_ELEMENT(#861,1.);
#856=DERIVED_UNIT_ELEMENT(#1530,-3.);
#857=DERIVED_UNIT_ELEMENT(#861,1.);
#858=DERIVED_UNIT_ELEMENT(#1530,-3.);
#859=DERIVED_UNIT_ELEMENT(#861,1.);
#860=DERIVED_UNIT_ELEMENT(#1530,-3.);
#861=(
MASS_UNIT()
NAMED_UNIT(*)
SI_UNIT(.KILO.,.GRAM.)
);
#862=DERIVED_UNIT((#851,#852));
#863=DERIVED_UNIT((#853,#854));
#864=DERIVED_UNIT((#855,#856));
#865=DERIVED_UNIT((#857,#858));
#866=DERIVED_UNIT((#859,#860));
#867=MEASURE_REPRESENTATION_ITEM('density measure',
POSITIVE_RATIO_MEASURE(7850.),#862);
#868=MEASURE_REPRESENTATION_ITEM('density measure',
POSITIVE_RATIO_MEASURE(7850.),#863);
#869=MEASURE_REPRESENTATION_ITEM('density measure',
POSITIVE_RATIO_MEASURE(7850.),#864);
#870=MEASURE_REPRESENTATION_ITEM('density measure',
POSITIVE_RATIO_MEASURE(7850.),#865);
#871=MEASURE_REPRESENTATION_ITEM('density measure',
POSITIVE_RATIO_MEASURE(7850.),#866);
#872=PROPERTY_DEFINITION_REPRESENTATION(#897,#882);
#873=PROPERTY_DEFINITION_REPRESENTATION(#898,#883);
#874=PROPERTY_DEFINITION_REPRESENTATION(#899,#884);
#875=PROPERTY_DEFINITION_REPRESENTATION(#900,#885);
#876=PROPERTY_DEFINITION_REPRESENTATION(#901,#886);
#877=PROPERTY_DEFINITION_REPRESENTATION(#902,#887);
#878=PROPERTY_DEFINITION_REPRESENTATION(#903,#888);
#879=PROPERTY_DEFINITION_REPRESENTATION(#904,#889);
#880=PROPERTY_DEFINITION_REPRESENTATION(#905,#890);
#881=PROPERTY_DEFINITION_REPRESENTATION(#906,#891);
#882=REPRESENTATION('material name',(#892),#1522);
#883=REPRESENTATION('density',(#867),#1522);
#884=REPRESENTATION('material name',(#893),#1524);
#885=REPRESENTATION('density',(#868),#1524);
#886=REPRESENTATION('material name',(#894),#1525);
#887=REPRESENTATION('density',(#869),#1525);
#888=REPRESENTATION('material name',(#895),#1526);
#889=REPRESENTATION('density',(#870),#1526);
#890=REPRESENTATION('material name',(#896),#1527);
#891=REPRESENTATION('density',(#871),#1527);
#892=DESCRIPTIVE_REPRESENTATION_ITEM('Steel','Steel');
#893=DESCRIPTIVE_REPRESENTATION_ITEM('Steel','Steel');
#894=DESCRIPTIVE_REPRESENTATION_ITEM('Steel','Steel');
#895=DESCRIPTIVE_REPRESENTATION_ITEM('Steel','Steel');
#896=DESCRIPTIVE_REPRESENTATION_ITEM('Steel','Steel');
#897=PROPERTY_DEFINITION('material property','material name',#1592);
#898=PROPERTY_DEFINITION('material property','density of part',#1592);
#899=PROPERTY_DEFINITION('material property','material name',#1594);
#900=PROPERTY_DEFINITION('material property','density of part',#1594);
#901=PROPERTY_DEFINITION('material property','material name',#1595);
#902=PROPERTY_DEFINITION('material property','density of part',#1595);
#903=PROPERTY_DEFINITION('material property','material name',#1596);
#904=PROPERTY_DEFINITION('material property','density of part',#1596);
#905=PROPERTY_DEFINITION('material property','material name',#1597);
#906=PROPERTY_DEFINITION('material property','density of part',#1597);
#907=AXIS2_PLACEMENT_3D('',#1274,#1002,#1003);
#908=AXIS2_PLACEMENT_3D('',#1275,#1004,#1005);
#909=AXIS2_PLACEMENT_3D('',#1276,#1006,#1007);
#910=AXIS2_PLACEMENT_3D('',#1277,#1008,#1009);
#911=AXIS2_PLACEMENT_3D('',#1286,#1014,#1015);
#912=AXIS2_PLACEMENT_3D('',#1292,#1019,#1020);
#913=AXIS2_PLACEMENT_3D('',#1294,#1021,#1022);
#914=AXIS2_PLACEMENT_3D('',#1297,#1024,#1025);
#915=AXIS2_PLACEMENT_3D('',#1298,#1026,#1027);
#916=AXIS2_PLACEMENT_3D('',#1304,#1031,#1032);
#917=AXIS2_PLACEMENT_3D('',#1310,#1036,#1037);
#918=AXIS2_PLACEMENT_3D('',#1316,#1041,#1042);
#919=AXIS2_PLACEMENT_3D('',#1322,#1046,#1047);
#920=AXIS2_PLACEMENT_3D('',#1324,#1048,#1049);
#921=AXIS2_PLACEMENT_3D('',#1327,#1051,#1052);
#922=AXIS2_PLACEMENT_3D('',#1328,#1053,#1054);
#923=AXIS2_PLACEMENT_3D('',#1334,#1058,#1059);
#924=AXIS2_PLACEMENT_3D('',#1337,#1062,#1063);
#925=AXIS2_PLACEMENT_3D('',#1338,#1064,#1065);
#926=AXIS2_PLACEMENT_3D('',#1339,#1066,#1067);
#927=AXIS2_PLACEMENT_3D('',#1340,#1068,#1069);
#928=AXIS2_PLACEMENT_3D('',#1341,#1070,#1071);
#929=AXIS2_PLACEMENT_3D('',#1342,#1072,#1073);
#930=AXIS2_PLACEMENT_3D('',#1343,#1074,#1075);
#931=AXIS2_PLACEMENT_3D('',#1344,#1076,#1077);
#932=AXIS2_PLACEMENT_3D('',#1345,#1078,#1079);
#933=AXIS2_PLACEMENT_3D('',#1346,#1080,#1081);
#934=AXIS2_PLACEMENT_3D('',#1347,#1082,#1083);
#935=AXIS2_PLACEMENT_3D('',#1348,#1084,#1085);
#936=AXIS2_PLACEMENT_3D('',#1349,#1086,#1087);
#937=AXIS2_PLACEMENT_3D('',#1358,#1092,#1093);
#938=AXIS2_PLACEMENT_3D('',#1364,#1097,#1098);
#939=AXIS2_PLACEMENT_3D('',#1366,#1099,#1100);
#940=AXIS2_PLACEMENT_3D('',#1369,#1102,#1103);
#941=AXIS2_PLACEMENT_3D('',#1370,#1104,#1105);
#942=AXIS2_PLACEMENT_3D('',#1376,#1109,#1110);
#943=AXIS2_PLACEMENT_3D('',#1382,#1114,#1115);
#944=AXIS2_PLACEMENT_3D('',#1388,#1119,#1120);
#945=AXIS2_PLACEMENT_3D('',#1394,#1124,#1125);
#946=AXIS2_PLACEMENT_3D('',#1396,#1126,#1127);
#947=AXIS2_PLACEMENT_3D('',#1399,#1129,#1130);
#948=AXIS2_PLACEMENT_3D('',#1400,#1131,#1132);
#949=AXIS2_PLACEMENT_3D('',#1406,#1136,#1137);
#950=AXIS2_PLACEMENT_3D('',#1409,#1140,#1141);
#951=AXIS2_PLACEMENT_3D('',#1410,#1142,#1143);
#952=AXIS2_PLACEMENT_3D('',#1411,#1144,#1145);
#953=AXIS2_PLACEMENT_3D('',#1412,#1146,#1147);
#954=AXIS2_PLACEMENT_3D('',#1413,#1148,#1149);
#955=AXIS2_PLACEMENT_3D('',#1414,#1150,#1151);
#956=AXIS2_PLACEMENT_3D('',#1415,#1152,#1153);
#957=AXIS2_PLACEMENT_3D('',#1416,#1154,#1155);
#958=AXIS2_PLACEMENT_3D('',#1417,#1156,#1157);
#959=AXIS2_PLACEMENT_3D('',#1418,#1158,#1159);
#960=AXIS2_PLACEMENT_3D('',#1419,#1160,#1161);
#961=AXIS2_PLACEMENT_3D('',#1420,#1162,#1163);
#962=AXIS2_PLACEMENT_3D('',#1429,#1168,#1169);
#963=AXIS2_PLACEMENT_3D('',#1435,#1173,#1174);
#964=AXIS2_PLACEMENT_3D('',#1441,#1178,#1179);
#965=AXIS2_PLACEMENT_3D('',#1447,#1183,#1184);
#966=AXIS2_PLACEMENT_3D('',#1453,#1188,#1189);
#967=AXIS2_PLACEMENT_3D('',#1457,#1192,#1193);
#968=AXIS2_PLACEMENT_3D('',#1461,#1196,#1197);
#969=AXIS2_PLACEMENT_3D('',#1463,#1199,#1200);
#970=AXIS2_PLACEMENT_3D('',#1466,#1203,#1204);
#971=AXIS2_PLACEMENT_3D('',#1470,#1207,#1208);
#972=AXIS2_PLACEMENT_3D('',#1474,#1211,#1212);
#973=AXIS2_PLACEMENT_3D('',#1477,#1214,#1215);
#974=AXIS2_PLACEMENT_3D('',#1478,#1216,#1217);
#975=AXIS2_PLACEMENT_3D('',#1479,#1218,#1219);
#976=AXIS2_PLACEMENT_3D('',#1480,#1220,#1221);
#977=AXIS2_PLACEMENT_3D('',#1482,#1222,#1223);
#978=AXIS2_PLACEMENT_3D('',#1484,#1225,#1226);
#979=AXIS2_PLACEMENT_3D('',#1485,#1227,#1228);
#980=AXIS2_PLACEMENT_3D('',#1486,#1229,#1230);
#981=AXIS2_PLACEMENT_3D('',#1488,#1231,#1232);
#982=AXIS2_PLACEMENT_3D('',#1491,#1234,#1235);
#983=AXIS2_PLACEMENT_3D('',#1492,#1236,#1237);
#984=AXIS2_PLACEMENT_3D('',#1493,#1238,#1239);
#985=AXIS2_PLACEMENT_3D('',#1494,#1240,#1241);
#986=AXIS2_PLACEMENT_3D('',#1495,#1242,#1243);
#987=AXIS2_PLACEMENT_3D('',#1496,#1244,#1245);
#988=AXIS2_PLACEMENT_3D('',#1497,#1246,#1247);
#989=AXIS2_PLACEMENT_3D('',#1498,#1248,#1249);
#990=AXIS2_PLACEMENT_3D('',#1499,#1250,#1251);
#991=AXIS2_PLACEMENT_3D('',#1500,#1252,#1253);
#992=AXIS2_PLACEMENT_3D('',#1501,#1254,#1255);
#993=AXIS2_PLACEMENT_3D('',#1502,#1256,#1257);
#994=AXIS2_PLACEMENT_3D('',#1503,#1258,#1259);
#995=AXIS2_PLACEMENT_3D('',#1504,#1260,#1261);
#996=AXIS2_PLACEMENT_3D('',#1505,#1262,#1263);
#997=AXIS2_PLACEMENT_3D('',#1506,#1264,#1265);
#998=AXIS2_PLACEMENT_3D('',#1507,#1266,#1267);
#999=AXIS2_PLACEMENT_3D('',#1508,#1268,#1269);
#1000=AXIS2_PLACEMENT_3D('',#1509,#1270,#1271);
#1001=AXIS2_PLACEMENT_3D('',#1510,#1272,#1273);
#1002=DIRECTION('axis',(0.,0.,1.));
#1003=DIRECTION('refdir',(1.,0.,0.));
#1004=DIRECTION('axis',(0.,0.,1.));
#1005=DIRECTION('refdir',(1.,0.,0.));
#1006=DIRECTION('axis',(0.,0.,1.));
#1007=DIRECTION('refdir',(1.,0.,0.));
#1008=DIRECTION('center_axis',(0.,1.,0.));
#1009=DIRECTION('ref_axis',(1.,0.,0.));
#1010=DIRECTION('',(0.,0.,1.));
#1011=DIRECTION('',(-1.,0.,0.));
#1012=DIRECTION('',(0.,0.,1.));
#1013=DIRECTION('',(-1.,0.,0.));
#1014=DIRECTION('center_axis',(-1.,0.,0.));
#1015=DIRECTION('ref_axis',(0.,1.,0.));
#1016=DIRECTION('',(0.,-1.,0.));
#1017=DIRECTION('',(0.,0.,1.));
#1018=DIRECTION('',(0.,-1.,0.));
#1019=DIRECTION('center_axis',(0.,0.,-1.));
#1020=DIRECTION('ref_axis',(-1.,0.,0.));
#1021=DIRECTION('center_axis',(0.,0.,-1.));
#1022=DIRECTION('ref_axis',(-1.,0.,0.));
#1023=DIRECTION('',(0.,0.,1.));
#1024=DIRECTION('center_axis',(0.,0.,-1.));
#1025=DIRECTION('ref_axis',(-1.,0.,0.));
#1026=DIRECTION('center_axis',(2.745870418065E-15,1.,0.));
#1027=DIRECTION('ref_axis',(1.,-2.745870418065E-15,0.));
#1028=DIRECTION('',(-1.,2.745870418065E-15,0.));
#1029=DIRECTION('',(0.,0.,1.));
#1030=DIRECTION('',(-1.,2.745870418065E-15,0.));
#1031=DIRECTION('center_axis',(1.,0.,0.));
#1032=DIRECTION('ref_axis',(0.,-1.,0.));
#1033=DIRECTION('',(0.,1.,0.));
#1034=DIRECTION('',(0.,0.,1.));
#1035=DIRECTION('',(0.,1.,0.));
#1036=DIRECTION('center_axis',(0.,-1.,0.));
#1037=DIRECTION('ref_axis',(-1.,0.,0.));
#1038=DIRECTION('',(1.,0.,0.));
#1039=DIRECTION('',(0.,0.,1.));
#1040=DIRECTION('',(1.,0.,0.));
#1041=DIRECTION('center_axis',(1.,0.,0.));
#1042=DIRECTION('ref_axis',(0.,-1.,0.));
#1043=DIRECTION('',(0.,1.,0.));
#1044=DIRECTION('',(0.,0.,1.));
#1045=DIRECTION('',(0.,1.,0.));
#1046=DIRECTION('center_axis',(0.,0.,-1.));
#1047=DIRECTION('ref_axis',(-1.,0.,0.));
#1048=DIRECTION('center_axis',(0.,0.,-1.));
#1049=DIRECTION('ref_axis',(-1.,0.,0.));
#1050=DIRECTION('',(0.,0.,1.));
#1051=DIRECTION('center_axis',(0.,0.,-1.));
#1052=DIRECTION('ref_axis',(-1.,0.,0.));
#1053=DIRECTION('center_axis',(0.,-1.,0.));
#1054=DIRECTION('ref_axis',(-1.,0.,0.));
#1055=DIRECTION('',(1.,0.,0.));
#1056=DIRECTION('',(0.,0.,1.));
#1057=DIRECTION('',(1.,0.,0.));
#1058=DIRECTION('center_axis',(-1.,0.,0.));
#1059=DIRECTION('ref_axis',(0.,1.,0.));
#1060=DIRECTION('',(0.,-1.,0.));
#1061=DIRECTION('',(0.,-1.,0.));
#1062=DIRECTION('center_axis',(0.,0.,1.));
#1063=DIRECTION('ref_axis',(1.,0.,0.));
#1064=DIRECTION('center_axis',(0.,0.,1.));
#1065=DIRECTION('ref_axis',(1.,0.,0.));
#1066=DIRECTION('',(0.,0.,1.));
#1067=DIRECTION('',(1.,0.,0.));
#1068=DIRECTION('',(0.,0.,1.));
#1069=DIRECTION('',(1.,0.,0.));
#1070=DIRECTION('',(0.,0.,1.));
#1071=DIRECTION('',(1.,0.,0.));
#1072=DIRECTION('',(0.,0.,1.));
#1073=DIRECTION('',(1.,0.,0.));
#1074=DIRECTION('',(0.,0.,1.));
#1075=DIRECTION('',(1.,0.,0.));
#1076=DIRECTION('',(0.,0.,1.));
#1077=DIRECTION('',(1.,0.,0.));
#1078=DIRECTION('',(0.,0.,1.));
#1079=DIRECTION('',(1.,0.,0.));
#1080=DIRECTION('',(0.,0.,1.));
#1081=DIRECTION('',(1.,0.,0.));
#1082=DIRECTION('axis',(0.,0.,1.));
#1083=DIRECTION('refdir',(1.,0.,0.));
#1084=DIRECTION('axis',(0.,0.,1.));
#1085=DIRECTION('refdir',(1.,0.,0.));
#1086=DIRECTION('center_axis',(0.,1.,0.));
#1087=DIRECTION('ref_axis',(1.,0.,0.));
#1088=DIRECTION('',(0.,0.,1.));
#1089=DIRECTION('',(1.,0.,0.));
#1090=DIRECTION('',(0.,0.,1.));
#1091=DIRECTION('',(1.,0.,0.));
#1092=DIRECTION('center_axis',(1.,0.,0.));
#1093=DIRECTION('ref_axis',(0.,-1.,0.));
#1094=DIRECTION('',(0.,-1.,0.));
#1095=DIRECTION('',(0.,0.,1.));
#1096=DIRECTION('',(0.,-1.,0.));
#1097=DIRECTION('center_axis',(0.,0.,-1.));
#1098=DIRECTION('ref_axis',(1.,0.,0.));
#1099=DIRECTION('center_axis',(0.,0.,1.));
#1100=DIRECTION('ref_axis',(1.,0.,0.));
#1101=DIRECTION('',(0.,0.,1.));
#1102=DIRECTION('center_axis',(0.,0.,1.));
#1103=DIRECTION('ref_axis',(1.,0.,0.));
#1104=DIRECTION('center_axis',(-2.745870418065E-15,1.,0.));
#1105=DIRECTION('ref_axis',(1.,2.745870418065E-15,0.));
#1106=DIRECTION('',(1.,2.745870418065E-15,0.));
#1107=DIRECTION('',(0.,0.,1.));
#1108=DIRECTION('',(1.,2.745870418065E-15,0.));
#1109=DIRECTION('center_axis',(-1.,0.,0.));
#1110=DIRECTION('ref_axis',(0.,1.,0.));
#1111=DIRECTION('',(0.,1.,0.));
#1112=DIRECTION('',(0.,0.,1.));
#1113=DIRECTION('',(0.,1.,0.));
#1114=DIRECTION('center_axis',(0.,-1.,0.));
#1115=DIRECTION('ref_axis',(-1.,0.,0.));
#1116=DIRECTION('',(-1.,0.,0.));
#1117=DIRECTION('',(0.,0.,1.));
#1118=DIRECTION('',(-1.,0.,0.));
#1119=DIRECTION('center_axis',(-1.,0.,0.));
#1120=DIRECTION('ref_axis',(0.,1.,0.));
#1121=DIRECTION('',(0.,1.,0.));
#1122=DIRECTION('',(0.,0.,1.));
#1123=DIRECTION('',(0.,1.,0.));
#1124=DIRECTION('center_axis',(0.,0.,-1.));
#1125=DIRECTION('ref_axis',(1.,0.,0.));
#1126=DIRECTION('center_axis',(0.,0.,1.));
#1127=DIRECTION('ref_axis',(1.,0.,0.));
#1128=DIRECTION('',(0.,0.,1.));
#1129=DIRECTION('center_axis',(0.,0.,1.));
#1130=DIRECTION('ref_axis',(1.,0.,0.));
#1131=DIRECTION('center_axis',(0.,-1.,0.));
#1132=DIRECTION('ref_axis',(-1.,0.,0.));
#1133=DIRECTION('',(-1.,0.,0.));
#1134=DIRECTION('',(0.,0.,1.));
#1135=DIRECTION('',(-1.,0.,0.));
#1136=DIRECTION('center_axis',(1.,0.,0.));
#1137=DIRECTION('ref_axis',(0.,-1.,0.));
#1138=DIRECTION('',(0.,-1.,0.));
#1139=DIRECTION('',(0.,-1.,0.));
#1140=DIRECTION('center_axis',(0.,0.,1.));
#1141=DIRECTION('ref_axis',(1.,0.,0.));
#1142=DIRECTION('center_axis',(0.,0.,1.));
#1143=DIRECTION('ref_axis',(1.,0.,0.));
#1144=DIRECTION('',(0.,0.,1.));
#1145=DIRECTION('',(1.,0.,0.));
#1146=DIRECTION('',(0.,0.,1.));
#1147=DIRECTION('',(1.,0.,0.));
#1148=DIRECTION('',(0.,0.,1.));
#1149=DIRECTION('',(1.,0.,0.));
#1150=DIRECTION('',(0.,0.,1.));
#1151=DIRECTION('',(1.,0.,0.));
#1152=DIRECTION('',(0.,0.,1.));
#1153=DIRECTION('',(1.,0.,0.));
#1154=DIRECTION('',(0.,0.,1.));
#1155=DIRECTION('',(1.,0.,0.));
#1156=DIRECTION('',(0.,0.,1.));
#1157=DIRECTION('',(1.,0.,0.));
#1158=DIRECTION('',(0.,0.,1.));
#1159=DIRECTION('',(1.,0.,0.));
#1160=DIRECTION('axis',(0.,0.,1.));
#1161=DIRECTION('refdir',(1.,0.,0.));
#1162=DIRECTION('center_axis',(1.,0.,0.));
#1163=DIRECTION('ref_axis',(0.,2.22044604925E-16,1.));
#1164=DIRECTION('',(0.,0.,-1.));
#1165=DIRECTION('',(0.,1.,-2.22044604925E-16));
#1166=DIRECTION('',(0.,0.,-1.));
#1167=DIRECTION('',(0.,1.,-2.22044604925E-16));
#1168=DIRECTION('center_axis',(0.990268068741588,-0.139173100959942,0.));
#1169=DIRECTION('ref_axis',(0.139173100959942,0.990268068741588,0.));
#1170=DIRECTION('',(0.137844537491031,0.980814848460222,0.137844537519031));
#1171=DIRECTION('',(0.,0.,-1.));
#1172=DIRECTION('',(0.137844537491031,0.980814848460222,-0.137844537519031));
#1173=DIRECTION('center_axis',(0.,2.22044604925E-16,1.));
#1174=DIRECTION('ref_axis',(-1.,0.,0.));
#1175=DIRECTION('',(-1.,0.,0.));
#1176=DIRECTION('',(-1.,0.,0.));
#1177=DIRECTION('',(0.,1.,-2.22044604925E-16));
#1178=DIRECTION('center_axis',(-0.990268068741588,-0.139173100959942,0.));
#1179=DIRECTION('ref_axis',(0.139173100959942,-0.990268068741588,0.));
#1180=DIRECTION('',(-0.137844537491984,0.980814848463889,0.137844537491984));
#1181=DIRECTION('',(0.,0.,-1.));
#1182=DIRECTION('',(-0.137844537491984,0.980814848463889,-0.137844537491984));
#1183=DIRECTION('center_axis',(0.,-2.22044604925E-16,-1.));
#1184=DIRECTION('ref_axis',(1.,0.,0.));
#1185=DIRECTION('',(-1.,0.,0.));
#1186=DIRECTION('',(0.,1.,-2.22044604925E-16));
#1187=DIRECTION('',(-1.,0.,0.));
#1188=DIRECTION('center_axis',(0.,0.13917310098697,0.990268068737789));
#1189=DIRECTION('ref_axis',(0.,-0.990268068737789,0.13917310098697));
#1190=DIRECTION('',(-1.,0.,0.));
#1191=DIRECTION('',(-0.137844537491031,0.980814848460222,-0.137844537519031));
#1192=DIRECTION('center_axis',(0.,1.,0.));
#1193=DIRECTION('ref_axis',(0.,0.,1.));
#1194=DIRECTION('',(-1.,0.,0.));
#1195=DIRECTION('',(2.22044604925E-16,0.,-1.));
#1196=DIRECTION('center_axis',(0.,0.13917310098697,-0.990268068737789));
#1197=DIRECTION('ref_axis',(0.,0.990268068737789,0.13917310098697));
#1198=DIRECTION('',(-0.137844537491031,0.980814848460222,0.137844537519031));
#1199=DIRECTION('center_axis',(-1.,0.,0.));
#1200=DIRECTION('ref_axis',(0.,-2.22044604925E-16,-1.));
#1201=DIRECTION('',(2.22044604925E-16,0.,-1.));
#1202=DIRECTION('',(2.22044604925E-16,0.,-1.));
#1203=DIRECTION('center_axis',(0.,0.139173100959942,0.990268068741588));
#1204=DIRECTION('ref_axis',(0.,-0.990268068741588,0.139173100959942));
#1205=DIRECTION('',(-1.,0.,0.));
#1206=DIRECTION('',(0.137844537491984,0.980814848463889,-0.137844537491984));
#1207=DIRECTION('center_axis',(0.,0.139173100959942,-0.990268068741588));
#1208=DIRECTION('ref_axis',(0.,0.990268068741588,0.139173100959942));
#1209=DIRECTION('',(0.137844537491984,0.980814848463889,0.137844537491984));
#1210=DIRECTION('',(-1.,0.,0.));
#1211=DIRECTION('center_axis',(0.,1.,0.));
#1212=DIRECTION('ref_axis',(0.,0.,1.));
#1213=DIRECTION('',(2.22044604925E-16,0.,-1.));
#1214=DIRECTION('center_axis',(0.,1.,2.22044604925E-16));
#1215=DIRECTION('ref_axis',(1.,0.,0.));
#1216=DIRECTION('center_axis',(-0.990268068741588,-0.139173100959942,-2.19883682093508E-16));
#1217=DIRECTION('ref_axis',(0.139173100959942,-0.990268068741588,3.09026362188571E-17));
#1218=DIRECTION('center_axis',(0.990268068741588,-0.139173100959942,2.19883682093508E-16));
#1219=DIRECTION('ref_axis',(0.139173100959942,0.990268068741588,3.09026362188571E-17));
#1220=DIRECTION('center_axis',(0.,1.,2.22044604925E-16));
#1221=DIRECTION('ref_axis',(1.,0.,0.));
#1222=DIRECTION('center_axis',(0.,1.,2.22044604925E-16));
#1223=DIRECTION('ref_axis',(1.,0.,0.));
#1224=DIRECTION('',(0.,1.,2.22044604925E-16));
#1225=DIRECTION('center_axis',(3.795634272223E-16,1.,6.57423140644E-16));
#1226=DIRECTION('ref_axis',(0.,-6.57423140644E-16,1.));
#1227=DIRECTION('axis',(0.,0.,1.));
#1228=DIRECTION('refdir',(1.,0.,0.));
#1229=DIRECTION('center_axis',(0.,-1.,2.22044604925E-16));
#1230=DIRECTION('ref_axis',(-1.,0.,0.));
#1231=DIRECTION('center_axis',(0.,1.,-2.22044604925E-16));
#1232=DIRECTION('ref_axis',(-1.,0.,0.));
#1233=DIRECTION('',(0.,1.,-2.22044604925E-16));
#1234=DIRECTION('center_axis',(0.,1.,-2.22044604925E-16));
#1235=DIRECTION('ref_axis',(-1.,0.,0.));
#1236=DIRECTION('center_axis',(3.795634272223E-16,1.,-6.57423140644E-16));
#1237=DIRECTION('ref_axis',(0.,6.57423140644E-16,1.));
#1238=DIRECTION('center_axis',(3.795634272223E-16,1.,-6.57423140644E-16));
#1239=DIRECTION('ref_axis',(0.,6.57423140644E-16,1.));
#1240=DIRECTION('axis',(0.,0.,1.));
#1241=DIRECTION('refdir',(1.,0.,0.));
#1242=DIRECTION('',(0.,0.,1.));
#1243=DIRECTION('',(1.,0.,0.));
#1244=DIRECTION('',(0.,0.,1.));
#1245=DIRECTION('',(1.,0.,0.));
#1246=DIRECTION('',(0.,0.,1.));
#1247=DIRECTION('',(1.,0.,0.));
#1248=DIRECTION('',(0.,0.,1.));
#1249=DIRECTION('',(1.,0.,0.));
#1250=DIRECTION('',(0.,0.,1.));
#1251=DIRECTION('',(1.,0.,0.));
#1252=DIRECTION('',(0.,0.,1.));
#1253=DIRECTION('',(1.,0.,0.));
#1254=DIRECTION('',(0.,0.,1.));
#1255=DIRECTION('',(1.,0.,0.));
#1256=DIRECTION('',(0.,0.,1.));
#1257=DIRECTION('',(1.,0.,0.));
#1258=DIRECTION('',(1.,1.232595164408E-32,1.110223024625E-16));
#1259=DIRECTION('',(-5.16728808719776E-45,1.,-1.110223024625E-16));
#1260=DIRECTION('',(1.,1.232595164408E-32,1.110223024625E-16));
#1261=DIRECTION('',(-5.16728808719776E-45,1.,-1.110223024625E-16));
#1262=DIRECTION('',(1.,1.232595164408E-32,1.110223024625E-16));
#1263=DIRECTION('',(-5.16728808719776E-45,1.,-1.110223024625E-16));
#1264=DIRECTION('',(1.,1.232595164408E-32,1.110223024625E-16));
#1265=DIRECTION('',(-5.16728808719776E-45,1.,-1.110223024625E-16));
#1266=DIRECTION('',(0.,-1.,1.110223024625E-16));
#1267=DIRECTION('',(0.,1.110223024625E-16,1.));
#1268=DIRECTION('',(0.,-1.,1.110223024625E-16));
#1269=DIRECTION('',(0.,1.110223024625E-16,1.));
#1270=DIRECTION('',(0.,-1.,1.110223024625E-16));
#1271=DIRECTION('',(0.,1.110223024625E-16,1.));
#1272=DIRECTION('',(0.,-1.,1.110223024625E-16));
#1273=DIRECTION('',(0.,1.110223024625E-16,1.));
#1274=CARTESIAN_POINT('',(0.,0.,0.));
#1275=CARTESIAN_POINT('',(0.,0.,0.));
#1276=CARTESIAN_POINT('',(0.,0.,0.));
#1277=CARTESIAN_POINT('Origin',(-1.95,0.8575,4.295));
#1278=CARTESIAN_POINT('',(-1.95,0.8575,4.295));
#1279=CARTESIAN_POINT('',(-1.95,0.8575,4.595));
#1280=CARTESIAN_POINT('',(-1.95,0.8575,4.295));
#1281=CARTESIAN_POINT('',(-2.265,0.8575,4.595));
#1282=CARTESIAN_POINT('',(-1.95,0.8575,4.595));
#1283=CARTESIAN_POINT('',(-2.265,0.8575,4.295));
#1284=CARTESIAN_POINT('',(-2.265,0.8575,4.295));
#1285=CARTESIAN_POINT('',(-1.95,0.8575,4.295));
#1286=CARTESIAN_POINT('Origin',(-2.265,0.8575,4.295));
#1287=CARTESIAN_POINT('',(-2.265,0.21,4.595));
#1288=CARTESIAN_POINT('',(-2.265,0.8575,4.595));
#1289=CARTESIAN_POINT('',(-2.265,0.21,4.295));
#1290=CARTESIAN_POINT('',(-2.265,0.21,4.295));
#1291=CARTESIAN_POINT('',(-2.265,0.8575,4.295));
#1292=CARTESIAN_POINT('Origin',(-2.475,0.21,4.295));
#1293=CARTESIAN_POINT('',(-2.475,-1.442435950752E-15,4.595));
#1294=CARTESIAN_POINT('Origin',(-2.475,0.21,4.595));
#1295=CARTESIAN_POINT('',(-2.475,-1.442435950752E-15,4.295));
#1296=CARTESIAN_POINT('',(-2.475,-1.442435950752E-15,4.295));
#1297=CARTESIAN_POINT('Origin',(-2.475,0.21,4.295));
#1298=CARTESIAN_POINT('Origin',(-2.475,-1.441581969484E-15,4.295));
#1299=CARTESIAN_POINT('',(-3.,0.,4.595));
#1300=CARTESIAN_POINT('',(-2.475,-1.441581969484E-15,4.595));
#1301=CARTESIAN_POINT('',(-3.,0.,4.295));
#1302=CARTESIAN_POINT('',(-3.,0.,4.295));
#1303=CARTESIAN_POINT('',(-2.475,-1.441581969484E-15,4.295));
#1304=CARTESIAN_POINT('Origin',(-3.,0.,4.295));
#1305=CARTESIAN_POINT('',(-3.,0.21,4.595));
#1306=CARTESIAN_POINT('',(-3.,0.,4.595));
#1307=CARTESIAN_POINT('',(-3.,0.21,4.295));
#1308=CARTESIAN_POINT('',(-3.,0.21,4.295));
#1309=CARTESIAN_POINT('',(-3.,0.,4.295));
#1310=CARTESIAN_POINT('Origin',(-3.,0.21,4.295));
#1311=CARTESIAN_POINT('',(-2.475,0.21,4.595));
#1312=CARTESIAN_POINT('',(-3.,0.21,4.595));
#1313=CARTESIAN_POINT('',(-2.475,0.21,4.295));
#1314=CARTESIAN_POINT('',(-2.475,0.21,4.295));
#1315=CARTESIAN_POINT('',(-3.,0.21,4.295));
#1316=CARTESIAN_POINT('Origin',(-2.475,0.21,4.295));
#1317=CARTESIAN_POINT('',(-2.475,0.8575,4.595));
#1318=CARTESIAN_POINT('',(-2.475,0.21,4.595));
#1319=CARTESIAN_POINT('',(-2.475,0.8575,4.295));
#1320=CARTESIAN_POINT('',(-2.475,0.8575,4.295));
#1321=CARTESIAN_POINT('',(-2.475,0.21,4.295));
#1322=CARTESIAN_POINT('Origin',(-2.265,0.8575,4.295));
#1323=CARTESIAN_POINT('',(-2.265,1.0675,4.595));
#1324=CARTESIAN_POINT('Origin',(-2.265,0.8575,4.595));
#1325=CARTESIAN_POINT('',(-2.265,1.0675,4.295));
#1326=CARTESIAN_POINT('',(-2.265,1.0675,4.295));
#1327=CARTESIAN_POINT('Origin',(-2.265,0.8575,4.295));
#1328=CARTESIAN_POINT('Origin',(-2.265,1.0675,4.295));
#1329=CARTESIAN_POINT('',(-1.95,1.0675,4.595));
#1330=CARTESIAN_POINT('',(-2.265,1.0675,4.595));
#1331=CARTESIAN_POINT('',(-1.95,1.0675,4.295));
#1332=CARTESIAN_POINT('',(-1.95,1.0675,4.295));
#1333=CARTESIAN_POINT('',(-2.265,1.0675,4.295));
#1334=CARTESIAN_POINT('Origin',(-1.95,1.0675,4.295));
#1335=CARTESIAN_POINT('',(-1.95,1.0675,4.595));
#1336=CARTESIAN_POINT('',(-1.95,1.0675,4.295));
#1337=CARTESIAN_POINT('Origin',(-2.435378145715,0.489256539722,4.295));
#1338=CARTESIAN_POINT('Origin',(-2.435378145715,0.489256539722,4.595));
#1339=CARTESIAN_POINT('',(0.,0.,0.));
#1340=CARTESIAN_POINT('',(0.,0.,-1.27));
#1341=CARTESIAN_POINT('',(0.,0.,-2.54));
#1342=CARTESIAN_POINT('',(0.,0.,-3.81));
#1343=CARTESIAN_POINT('',(0.,0.,-5.08));
#1344=CARTESIAN_POINT('',(0.,0.,-6.35));
#1345=CARTESIAN_POINT('',(0.,0.,-7.62));
#1346=CARTESIAN_POINT('',(0.,0.,-8.89));
#1347=CARTESIAN_POINT('',(0.,0.,0.));
#1348=CARTESIAN_POINT('',(0.,0.,0.));
#1349=CARTESIAN_POINT('Origin',(1.95,0.8575,-0.15));
#1350=CARTESIAN_POINT('',(1.95,0.8575,-0.15));
#1351=CARTESIAN_POINT('',(1.95,0.8575,0.15));
#1352=CARTESIAN_POINT('',(1.95,0.8575,-0.15));
#1353=CARTESIAN_POINT('',(2.265,0.8575,-0.15));
#1354=CARTESIAN_POINT('',(1.95,0.8575,-0.15));
#1355=CARTESIAN_POINT('',(2.265,0.8575,0.15));
#1356=CARTESIAN_POINT('',(2.265,0.8575,-0.15));
#1357=CARTESIAN_POINT('',(1.95,0.8575,0.15));
#1358=CARTESIAN_POINT('Origin',(2.265,0.8575,-0.15));
#1359=CARTESIAN_POINT('',(2.265,0.21,-0.15));
#1360=CARTESIAN_POINT('',(2.265,0.8575,-0.15));
#1361=CARTESIAN_POINT('',(2.265,0.21,0.15));
#1362=CARTESIAN_POINT('',(2.265,0.21,-0.15));
#1363=CARTESIAN_POINT('',(2.265,0.8575,0.15));
#1364=CARTESIAN_POINT('Origin',(2.475,0.21,-0.15));
#1365=CARTESIAN_POINT('',(2.475,-1.442435950752E-15,-0.15));
#1366=CARTESIAN_POINT('Origin',(2.475,0.21,-0.15));
#1367=CARTESIAN_POINT('',(2.475,-1.442435950752E-15,0.15));
#1368=CARTESIAN_POINT('',(2.475,-1.442435950752E-15,-0.15));
#1369=CARTESIAN_POINT('Origin',(2.475,0.21,0.15));
#1370=CARTESIAN_POINT('Origin',(2.475,-1.441581969484E-15,-0.15));
#1371=CARTESIAN_POINT('',(3.,0.,-0.15));
#1372=CARTESIAN_POINT('',(2.475,-1.441581969484E-15,-0.15));
#1373=CARTESIAN_POINT('',(3.,0.,0.15));
#1374=CARTESIAN_POINT('',(3.,0.,-0.15));
#1375=CARTESIAN_POINT('',(2.475,-1.441581969484E-15,0.15));
#1376=CARTESIAN_POINT('Origin',(3.,0.,-0.15));
#1377=CARTESIAN_POINT('',(3.,0.21,-0.15));
#1378=CARTESIAN_POINT('',(3.,0.,-0.15));
#1379=CARTESIAN_POINT('',(3.,0.21,0.15));
#1380=CARTESIAN_POINT('',(3.,0.21,-0.15));
#1381=CARTESIAN_POINT('',(3.,0.,0.15));
#1382=CARTESIAN_POINT('Origin',(3.,0.21,-0.15));
#1383=CARTESIAN_POINT('',(2.475,0.21,-0.15));
#1384=CARTESIAN_POINT('',(3.,0.21,-0.15));
#1385=CARTESIAN_POINT('',(2.475,0.21,0.15));
#1386=CARTESIAN_POINT('',(2.475,0.21,-0.15));
#1387=CARTESIAN_POINT('',(3.,0.21,0.15));
#1388=CARTESIAN_POINT('Origin',(2.475,0.21,-0.15));
#1389=CARTESIAN_POINT('',(2.475,0.8575,-0.15));
#1390=CARTESIAN_POINT('',(2.475,0.21,-0.15));
#1391=CARTESIAN_POINT('',(2.475,0.8575,0.15));
#1392=CARTESIAN_POINT('',(2.475,0.8575,-0.15));
#1393=CARTESIAN_POINT('',(2.475,0.21,0.15));
#1394=CARTESIAN_POINT('Origin',(2.265,0.8575,-0.15));
#1395=CARTESIAN_POINT('',(2.265,1.0675,-0.15));
#1396=CARTESIAN_POINT('Origin',(2.265,0.8575,-0.15));
#1397=CARTESIAN_POINT('',(2.265,1.0675,0.15));
#1398=CARTESIAN_POINT('',(2.265,1.0675,-0.15));
#1399=CARTESIAN_POINT('Origin',(2.265,0.8575,0.15));
#1400=CARTESIAN_POINT('Origin',(2.265,1.0675,-0.15));
#1401=CARTESIAN_POINT('',(1.95,1.0675,-0.15));
#1402=CARTESIAN_POINT('',(2.265,1.0675,-0.15));
#1403=CARTESIAN_POINT('',(1.95,1.0675,0.15));
#1404=CARTESIAN_POINT('',(1.95,1.0675,-0.15));
#1405=CARTESIAN_POINT('',(2.265,1.0675,0.15));
#1406=CARTESIAN_POINT('Origin',(1.95,1.0675,-0.15));
#1407=CARTESIAN_POINT('',(1.95,1.0675,-0.15));
#1408=CARTESIAN_POINT('',(1.95,1.0675,0.15));
#1409=CARTESIAN_POINT('Origin',(2.435378145715,0.489256539722,-0.15));
#1410=CARTESIAN_POINT('Origin',(2.435378145715,0.489256539722,0.15));
#1411=CARTESIAN_POINT('',(0.,0.,4.445));
#1412=CARTESIAN_POINT('',(0.,0.,3.175));
#1413=CARTESIAN_POINT('',(0.,0.,1.905));
#1414=CARTESIAN_POINT('',(0.,0.,0.635));
#1415=CARTESIAN_POINT('',(0.,0.,-0.635));
#1416=CARTESIAN_POINT('',(0.,0.,-1.905));
#1417=CARTESIAN_POINT('',(0.,0.,-3.175));
#1418=CARTESIAN_POINT('',(0.,0.,-4.445));
#1419=CARTESIAN_POINT('',(0.,0.,0.));
#1420=CARTESIAN_POINT('Origin',(1.95,-1.099120794379E-15,-4.95));
#1421=CARTESIAN_POINT('',(1.95,0.8575,4.95));
#1422=CARTESIAN_POINT('',(1.95,0.8575,-4.95));
#1423=CARTESIAN_POINT('',(1.95,0.8575,10.86398672507));
#1424=CARTESIAN_POINT('',(1.95,1.0675,-4.95));
#1425=CARTESIAN_POINT('',(1.95,-1.099120794379E-15,-4.95));
#1426=CARTESIAN_POINT('',(1.95,1.0675,4.95));
#1427=CARTESIAN_POINT('',(1.95,1.0675,10.86398672507));
#1428=CARTESIAN_POINT('',(1.95,1.099120794379E-15,4.95));
#1429=CARTESIAN_POINT('Origin',(1.854080880316,0.175,10.86398672507));
#1430=CARTESIAN_POINT('',(1.854080880316,0.175000000068,4.854080880316));
#1431=CARTESIAN_POINT('',(1.996777476318,1.190339038682,4.996777476327));
#1432=CARTESIAN_POINT('',(1.854080880316,0.175000000068,-4.854080880316));
#1433=CARTESIAN_POINT('',(1.854080880316,0.175,10.86398672507));
#1434=CARTESIAN_POINT('',(1.790349598684,-0.27847163169,-4.790349598652));
#1435=CARTESIAN_POINT('Origin',(1.95,1.099120794379E-15,4.95));
#1436=CARTESIAN_POINT('',(-1.95,0.8575,4.95));
#1437=CARTESIAN_POINT('',(10.86398672507,0.8575,4.95));
#1438=CARTESIAN_POINT('',(-1.95,1.0675,4.95));
#1439=CARTESIAN_POINT('',(10.86398672507,1.0675,4.95));
#1440=CARTESIAN_POINT('',(-1.95,1.099120794379E-15,4.95));
#1441=CARTESIAN_POINT('Origin',(1.854080880316,1.75,10.86398672507));
#1442=CARTESIAN_POINT('',(1.854080880316,1.75,-4.854080880316));
#1443=CARTESIAN_POINT('',(1.790349598704,2.20347163155,-4.790349598704));
#1444=CARTESIAN_POINT('',(1.854080880316,1.75,4.854080880316));
#1445=CARTESIAN_POINT('',(1.854080880316,1.75,10.86398672507));
#1446=CARTESIAN_POINT('',(1.996777476298,0.734660961459,4.996777476298));
#1447=CARTESIAN_POINT('Origin',(-1.95,-1.099120794379E-15,-4.95));
#1448=CARTESIAN_POINT('',(-1.95,0.8575,-4.95));
#1449=CARTESIAN_POINT('',(10.86398672507,0.8575,-4.95));
#1450=CARTESIAN_POINT('',(-1.95,1.0675,-4.95));
#1451=CARTESIAN_POINT('',(-1.95,-1.099120794379E-15,-4.95));
#1452=CARTESIAN_POINT('',(10.86398672507,1.0675,-4.95));
#1453=CARTESIAN_POINT('Origin',(10.86398672507,0.175000000136,-4.854080880316));
#1454=CARTESIAN_POINT('',(-1.854080880316,0.175000000068,-4.854080880316));
#1455=CARTESIAN_POINT('',(10.86398672507,0.175000000136,-4.854080880316));
#1456=CARTESIAN_POINT('',(-1.583921721091,-1.74728230177,-4.583921721018));
#1457=CARTESIAN_POINT('Origin',(0.,0.175,1.110223024625E-16));
#1458=CARTESIAN_POINT('',(-1.854080880316,0.175000000068,4.854080880316));
#1459=CARTESIAN_POINT('',(10.86398672507,0.175000000136,4.854080880316));
#1460=CARTESIAN_POINT('',(-1.854080880316,0.175,10.86398672507));
#1461=CARTESIAN_POINT('Origin',(10.86398672507,0.175000000136,4.854080880316));
#1462=CARTESIAN_POINT('',(-1.790349598725,-0.278471631398,4.790349598693));
#1463=CARTESIAN_POINT('Origin',(-1.95,1.099120794379E-15,4.95));
#1464=CARTESIAN_POINT('',(-1.95,0.8575,10.86398672507));
#1465=CARTESIAN_POINT('',(-1.95,1.0675,10.86398672507));
#1466=CARTESIAN_POINT('Origin',(10.86398672507,1.75,4.854080880316));
#1467=CARTESIAN_POINT('',(-1.854080880316,1.75,4.854080880316));
#1468=CARTESIAN_POINT('',(10.86398672507,1.75,4.854080880316));
#1469=CARTESIAN_POINT('',(-1.790349598704,2.20347163155,4.790349598704));
#1470=CARTESIAN_POINT('Origin',(10.86398672507,1.75,-4.854080880316));
#1471=CARTESIAN_POINT('',(-1.854080880316,1.75,-4.854080880316));
#1472=CARTESIAN_POINT('',(-1.583921721109,3.672282301641,-4.583921721109));
#1473=CARTESIAN_POINT('',(10.86398672507,1.75,-4.854080880316));
#1474=CARTESIAN_POINT('Origin',(0.,1.75,-2.22044604925E-16));
#1475=CARTESIAN_POINT('',(-1.854080880316,1.75,10.86398672507));
#1476=CARTESIAN_POINT('',(-1.587857142857,1.75,-4.392857142857));
#1477=CARTESIAN_POINT('Origin',(-1.392857142857,1.75,-4.392857142857));
#1478=CARTESIAN_POINT('Origin',(-1.854080880316,0.175,10.86398672507));
#1479=CARTESIAN_POINT('Origin',(-1.854080880316,1.75,10.86398672507));
#1480=CARTESIAN_POINT('Origin',(-1.392857142857,1.75,-4.392857142857));
#1481=CARTESIAN_POINT('',(-1.587857142857,1.633333333333,-4.392857142857));
#1482=CARTESIAN_POINT('Origin',(-1.392857142857,1.633333333333,-4.392857142857));
#1483=CARTESIAN_POINT('',(-1.587857142857,1.75,-4.392857142857));
#1484=CARTESIAN_POINT('Origin',(-1.392857142857,1.633333333333,-4.392857142857));
#1485=CARTESIAN_POINT('',(0.,0.,0.));
#1486=CARTESIAN_POINT('Origin',(-1.392857142857,1.633333333333,-4.392857142857));
#1487=CARTESIAN_POINT('',(-1.197857142857,1.633333333333,-4.392857142857));
#1488=CARTESIAN_POINT('Origin',(-1.392857142857,1.633333333333,-4.392857142857));
#1489=CARTESIAN_POINT('',(-1.197857142857,1.75,-4.392857142857));
#1490=CARTESIAN_POINT('',(-1.197857142857,1.633333333333,-4.392857142857));
#1491=CARTESIAN_POINT('Origin',(-1.392857142857,1.75,-4.392857142857));
#1492=CARTESIAN_POINT('Origin',(-1.392857142857,1.633333333333,-4.392857142857));
#1493=CARTESIAN_POINT('Origin',(-1.392857142857,1.75,-4.392857142857));
#1494=CARTESIAN_POINT('',(0.,0.,0.));
#1495=CARTESIAN_POINT('',(0.,0.,0.));
#1496=CARTESIAN_POINT('',(0.,0.,0.));
#1497=CARTESIAN_POINT('',(0.,0.,0.));
#1498=CARTESIAN_POINT('',(0.,0.,0.));
#1499=CARTESIAN_POINT('',(0.,0.,0.));
#1500=CARTESIAN_POINT('',(0.,0.,0.));
#1501=CARTESIAN_POINT('',(0.,0.,0.));
#1502=CARTESIAN_POINT('',(0.,0.,0.));
#1503=CARTESIAN_POINT('',(0.,0.,0.));
#1504=CARTESIAN_POINT('',(0.,0.,0.));
#1505=CARTESIAN_POINT('',(0.,0.,0.));
#1506=CARTESIAN_POINT('',(0.,0.,0.));
#1507=CARTESIAN_POINT('',(0.,0.,0.));
#1508=CARTESIAN_POINT('',(0.,0.,0.));
#1509=CARTESIAN_POINT('',(0.,0.,0.));
#1510=CARTESIAN_POINT('',(0.,0.,0.));
#1511=UNCERTAINTY_MEASURE_WITH_UNIT(LENGTH_MEASURE(0.01),#1529,
'DISTANCE_ACCURACY_VALUE',
'Maximum model space distance between geometric entities at asserted c
onnectivities');
#1512=UNCERTAINTY_MEASURE_WITH_UNIT(LENGTH_MEASURE(0.01),#1529,
'DISTANCE_ACCURACY_VALUE',
'Maximum model space distance between geometric entities at asserted c
onnectivities');
#1513=UNCERTAINTY_MEASURE_WITH_UNIT(LENGTH_MEASURE(0.01),#1529,
'DISTANCE_ACCURACY_VALUE',
'Maximum model space distance between geometric entities at asserted c
onnectivities');
#1514=UNCERTAINTY_MEASURE_WITH_UNIT(LENGTH_MEASURE(0.01),#1529,
'DISTANCE_ACCURACY_VALUE',
'Maximum model space distance between geometric entities at asserted c
onnectivities');
#1515=UNCERTAINTY_MEASURE_WITH_UNIT(LENGTH_MEASURE(0.01),#1529,
'DISTANCE_ACCURACY_VALUE',
'Maximum model space distance between geometric entities at asserted c
onnectivities');
#1516=UNCERTAINTY_MEASURE_WITH_UNIT(LENGTH_MEASURE(0.01),#1529,
'DISTANCE_ACCURACY_VALUE',
'Maximum model space distance between geometric entities at asserted c
onnectivities');
#1517=UNCERTAINTY_MEASURE_WITH_UNIT(LENGTH_MEASURE(0.01),#1529,
'DISTANCE_ACCURACY_VALUE',
'Maximum model space distance between geometric entities at asserted c
onnectivities');
#1518=UNCERTAINTY_MEASURE_WITH_UNIT(LENGTH_MEASURE(0.01),#1529,
'DISTANCE_ACCURACY_VALUE',
'Maximum model space distance between geometric entities at asserted c
onnectivities');
#1519=UNCERTAINTY_MEASURE_WITH_UNIT(LENGTH_MEASURE(0.01),#1529,
'DISTANCE_ACCURACY_VALUE',
'Maximum model space distance between geometric entities at asserted c
onnectivities');
#1520=(
GEOMETRIC_REPRESENTATION_CONTEXT(3)
GLOBAL_UNCERTAINTY_ASSIGNED_CONTEXT((#1511))
GLOBAL_UNIT_ASSIGNED_CONTEXT((#1529,#1531,#1532))
REPRESENTATION_CONTEXT('','3D')
);
#1521=(
GEOMETRIC_REPRESENTATION_CONTEXT(3)
GLOBAL_UNCERTAINTY_ASSIGNED_CONTEXT((#1512))
GLOBAL_UNIT_ASSIGNED_CONTEXT((#1529,#1531,#1532))
REPRESENTATION_CONTEXT('','3D')
);
#1522=(
GEOMETRIC_REPRESENTATION_CONTEXT(3)
GLOBAL_UNCERTAINTY_ASSIGNED_CONTEXT((#1513))
GLOBAL_UNIT_ASSIGNED_CONTEXT((#1529,#1531,#1532))
REPRESENTATION_CONTEXT('','3D')
);
#1523=(
GEOMETRIC_REPRESENTATION_CONTEXT(3)
GLOBAL_UNCERTAINTY_ASSIGNED_CONTEXT((#1514))
GLOBAL_UNIT_ASSIGNED_CONTEXT((#1529,#1531,#1532))
REPRESENTATION_CONTEXT('','3D')
);
#1524=(
GEOMETRIC_REPRESENTATION_CONTEXT(3)
GLOBAL_UNCERTAINTY_ASSIGNED_CONTEXT((#1515))
GLOBAL_UNIT_ASSIGNED_CONTEXT((#1529,#1531,#1532))
REPRESENTATION_CONTEXT('','3D')
);
#1525=(
GEOMETRIC_REPRESENTATION_CONTEXT(3)
GLOBAL_UNCERTAINTY_ASSIGNED_CONTEXT((#1516))
GLOBAL_UNIT_ASSIGNED_CONTEXT((#1529,#1531,#1532))
REPRESENTATION_CONTEXT('','3D')
);
#1526=(
GEOMETRIC_REPRESENTATION_CONTEXT(3)
GLOBAL_UNCERTAINTY_ASSIGNED_CONTEXT((#1517))
GLOBAL_UNIT_ASSIGNED_CONTEXT((#1529,#1531,#1532))
REPRESENTATION_CONTEXT('','3D')
);
#1527=(
GEOMETRIC_REPRESENTATION_CONTEXT(3)
GLOBAL_UNCERTAINTY_ASSIGNED_CONTEXT((#1518))
GLOBAL_UNIT_ASSIGNED_CONTEXT((#1529,#1531,#1532))
REPRESENTATION_CONTEXT('','3D')
);
#1528=(
GEOMETRIC_REPRESENTATION_CONTEXT(3)
GLOBAL_UNCERTAINTY_ASSIGNED_CONTEXT((#1519))
GLOBAL_UNIT_ASSIGNED_CONTEXT((#1529,#1531,#1532))
REPRESENTATION_CONTEXT('','3D')
);
#1529=(
LENGTH_UNIT()
NAMED_UNIT(*)
SI_UNIT(.MILLI.,.METRE.)
);
#1530=(
LENGTH_UNIT()
NAMED_UNIT(*)
SI_UNIT($,.METRE.)
);
#1531=(
NAMED_UNIT(*)
PLANE_ANGLE_UNIT()
SI_UNIT($,.RADIAN.)
);
#1532=(
NAMED_UNIT(*)
SI_UNIT($,.STERADIAN.)
SOLID_ANGLE_UNIT()
);
#1533=SHAPE_DEFINITION_REPRESENTATION(#1541,#1581);
#1534=SHAPE_DEFINITION_REPRESENTATION(#1542,#1582);
#1535=SHAPE_DEFINITION_REPRESENTATION(#1543,#1583);
#1536=SHAPE_DEFINITION_REPRESENTATION(#1552,#1584);
#1537=SHAPE_DEFINITION_REPRESENTATION(#1553,#1585);
#1538=SHAPE_DEFINITION_REPRESENTATION(#1562,#1586);
#1539=SHAPE_DEFINITION_REPRESENTATION(#1563,#1587);
#1540=SHAPE_DEFINITION_REPRESENTATION(#1564,#1588);
#1541=PRODUCT_DEFINITION_SHAPE('',$,#1590);
#1542=PRODUCT_DEFINITION_SHAPE('',$,#1591);
#1543=PRODUCT_DEFINITION_SHAPE('',$,#1592);
#1544=PRODUCT_DEFINITION_SHAPE($,$,#108);
#1545=PRODUCT_DEFINITION_SHAPE($,$,#109);
#1546=PRODUCT_DEFINITION_SHAPE($,$,#110);
#1547=PRODUCT_DEFINITION_SHAPE($,$,#111);
#1548=PRODUCT_DEFINITION_SHAPE($,$,#112);
#1549=PRODUCT_DEFINITION_SHAPE($,$,#113);
#1550=PRODUCT_DEFINITION_SHAPE($,$,#114);
#1551=PRODUCT_DEFINITION_SHAPE($,$,#115);
#1552=PRODUCT_DEFINITION_SHAPE('',$,#1593);
#1553=PRODUCT_DEFINITION_SHAPE('',$,#1594);
#1554=PRODUCT_DEFINITION_SHAPE($,$,#116);
#1555=PRODUCT_DEFINITION_SHAPE($,$,#117);
#1556=PRODUCT_DEFINITION_SHAPE($,$,#118);
#1557=PRODUCT_DEFINITION_SHAPE($,$,#119);
#1558=PRODUCT_DEFINITION_SHAPE($,$,#120);
#1559=PRODUCT_DEFINITION_SHAPE($,$,#121);
#1560=PRODUCT_DEFINITION_SHAPE($,$,#122);
#1561=PRODUCT_DEFINITION_SHAPE($,$,#123);
#1562=PRODUCT_DEFINITION_SHAPE('',$,#1595);
#1563=PRODUCT_DEFINITION_SHAPE('',$,#1596);
#1564=PRODUCT_DEFINITION_SHAPE('',$,#1597);
#1565=PRODUCT_DEFINITION_SHAPE($,$,#124);
#1566=PRODUCT_DEFINITION_SHAPE($,$,#125);
#1567=PRODUCT_DEFINITION_SHAPE($,$,#126);
#1568=PRODUCT_DEFINITION_SHAPE($,$,#127);
#1569=PRODUCT_DEFINITION_SHAPE($,$,#128);
#1570=PRODUCT_DEFINITION_SHAPE($,$,#129);
#1571=PRODUCT_DEFINITION_SHAPE($,$,#130);
#1572=PRODUCT_DEFINITION_SHAPE($,$,#131);
#1573=PRODUCT_DEFINITION_SHAPE($,$,#132);
#1574=PRODUCT_DEFINITION_SHAPE($,$,#133);
#1575=PRODUCT_DEFINITION_SHAPE($,$,#134);
#1576=PRODUCT_DEFINITION_SHAPE($,$,#135);
#1577=PRODUCT_DEFINITION_SHAPE($,$,#136);
#1578=PRODUCT_DEFINITION_SHAPE($,$,#137);
#1579=PRODUCT_DEFINITION_SHAPE($,$,#138);
#1580=PRODUCT_DEFINITION_SHAPE($,$,#139);
#1581=SHAPE_REPRESENTATION('',(#907,#986,#987,#988,#989,#990,#991,#992,
#993,#994,#995,#996,#997,#998,#999,#1000,#1001),#1520);
#1582=SHAPE_REPRESENTATION('',(#908,#926,#927,#928,#929,#930,#931,#932,
#933),#1521);
#1583=SHAPE_REPRESENTATION('',(#909),#1522);
#1584=SHAPE_REPRESENTATION('',(#934,#952,#953,#954,#955,#956,#957,#958,
#959),#1523);
#1585=SHAPE_REPRESENTATION('',(#935),#1524);
#1586=SHAPE_REPRESENTATION('',(#960),#1525);
#1587=SHAPE_REPRESENTATION('',(#979),#1526);
#1588=SHAPE_REPRESENTATION('',(#985),#1527);
#1589=PRODUCT_DEFINITION_CONTEXT('part definition',#1615,'design');
#1590=PRODUCT_DEFINITION('SOIC_standard',
'METUPowerLab_Switching_PWMControllers_SOIC-16 v1',#1598,#1589);
#1591=PRODUCT_DEFINITION('Array','Array',#1599,#1589);
#1592=PRODUCT_DEFINITION('Body001 (Mirror #1)','Body001 (Mirror #1)',#1600,
#1589);
#1593=PRODUCT_DEFINITION('Array001','Array001',#1601,#1589);
#1594=PRODUCT_DEFINITION('Body001','Body001',#1602,#1589);
#1595=PRODUCT_DEFINITION('Body','Body',#1603,#1589);
#1596=PRODUCT_DEFINITION('Body003','Body003',#1604,#1589);
#1597=PRODUCT_DEFINITION('X-axis','X-axis',#1605,#1589);
#1598=PRODUCT_DEFINITION_FORMATION('',$,#1617);
#1599=PRODUCT_DEFINITION_FORMATION('',$,#1618);
#1600=PRODUCT_DEFINITION_FORMATION('',$,#1619);
#1601=PRODUCT_DEFINITION_FORMATION('',$,#1620);
#1602=PRODUCT_DEFINITION_FORMATION('',$,#1621);
#1603=PRODUCT_DEFINITION_FORMATION('',$,#1622);
#1604=PRODUCT_DEFINITION_FORMATION('',$,#1623);
#1605=PRODUCT_DEFINITION_FORMATION('',$,#1624);
#1606=PRODUCT_RELATED_PRODUCT_CATEGORY(
'METUPowerLab_Switching_PWMControllers_SOIC-16 v1',
'METUPowerLab_Switching_PWMControllers_SOIC-16 v1',(#1617));
#1607=PRODUCT_RELATED_PRODUCT_CATEGORY('Array','Array',(#1618));
#1608=PRODUCT_RELATED_PRODUCT_CATEGORY('Body001 (Mirror #1)',
'Body001 (Mirror #1)',(#1619));
#1609=PRODUCT_RELATED_PRODUCT_CATEGORY('Array001','Array001',(#1620));
#1610=PRODUCT_RELATED_PRODUCT_CATEGORY('Body001','Body001',(#1621));
#1611=PRODUCT_RELATED_PRODUCT_CATEGORY('Body','Body',(#1622));
#1612=PRODUCT_RELATED_PRODUCT_CATEGORY('Body003','Body003',(#1623));
#1613=PRODUCT_RELATED_PRODUCT_CATEGORY('X-axis','X-axis',(#1624));
#1614=APPLICATION_PROTOCOL_DEFINITION('international standard',
'automotive_design',2009,#1615);
#1615=APPLICATION_CONTEXT(
'Core Data for Automotive Mechanical Design Process');
#1616=PRODUCT_CONTEXT('part definition',#1615,'mechanical');
#1617=PRODUCT('SOIC_standard',
'METUPowerLab_Switching_PWMControllers_SOIC-16 v1','FreeCAD Model',(#1616));
#1618=PRODUCT('Array','Array',$,(#1616));
#1619=PRODUCT('Body001 (Mirror #1)','Body001 (Mirror #1)',$,(#1616));
#1620=PRODUCT('Array001','Array001',$,(#1616));
#1621=PRODUCT('Body001','Body001',$,(#1616));
#1622=PRODUCT('Body','Body',$,(#1616));
#1623=PRODUCT('Body003','Body003',$,(#1616));
#1624=PRODUCT('X-axis','X-axis',$,(#1616));
#1625=PRESENTATION_STYLE_ASSIGNMENT((#1629));
#1626=PRESENTATION_STYLE_ASSIGNMENT((#1630));
#1627=PRESENTATION_STYLE_ASSIGNMENT((#1631));
#1628=PRESENTATION_STYLE_ASSIGNMENT((#1632));
#1629=SURFACE_STYLE_USAGE(.BOTH.,#1633);
#1630=SURFACE_STYLE_USAGE(.BOTH.,#1634);
#1631=SURFACE_STYLE_USAGE(.BOTH.,#1635);
#1632=SURFACE_STYLE_USAGE(.BOTH.,#1636);
#1633=SURFACE_SIDE_STYLE('',(#1637));
#1634=SURFACE_SIDE_STYLE('',(#1638));
#1635=SURFACE_SIDE_STYLE('',(#1639));
#1636=SURFACE_SIDE_STYLE('',(#1640));
#1637=SURFACE_STYLE_FILL_AREA(#1641);
#1638=SURFACE_STYLE_FILL_AREA(#1642);
#1639=SURFACE_STYLE_FILL_AREA(#1643);
#1640=SURFACE_STYLE_FILL_AREA(#1644);
#1641=FILL_AREA_STYLE('Steel - Satin',(#1645));
#1642=FILL_AREA_STYLE('Opaque(204,204,204)',(#1646));
#1643=FILL_AREA_STYLE('Opaque(64,64,64)',(#1647));
#1644=FILL_AREA_STYLE('Opaque(255,255,255)',(#1648));
#1645=FILL_AREA_STYLE_COLOUR('Steel - Satin',#1649);
#1646=FILL_AREA_STYLE_COLOUR('Opaque(204,204,204)',#1650);
#1647=FILL_AREA_STYLE_COLOUR('Opaque(64,64,64)',#1651);
#1648=FILL_AREA_STYLE_COLOUR('Opaque(255,255,255)',#1652);
#1649=COLOUR_RGB('Steel - Satin',0.627450980392157,0.627450980392157,0.627450980392157);
#1650=COLOUR_RGB('Opaque(204,204,204)',0.8,0.8,0.8);
#1651=COLOUR_RGB('Opaque(64,64,64)',0.250980392156863,0.250980392156863,
0.250980392156863);
#1652=COLOUR_RGB('Opaque(255,255,255)',1.,1.,1.);
ENDSEC;
END-ISO-10303-21;
